<?xml version="1.0" encoding="utf-8"?>
<!-- Generator: Adobe Illustrator 17.0.0, SVG Export Plug-In . SVG Version: 6.00 Build 0)  -->
<!DOCTYPE svg PUBLIC "-//W3C//DTD SVG 1.0//EN" "http://www.w3.org/TR/2001/REC-SVG-20010904/DTD/svg10.dtd">
<svg version="1.0" id="Layer_3" xmlns="http://www.w3.org/2000/svg" xmlns:xlink="http://www.w3.org/1999/xlink" x="0px" y="0px"
	 width="30px" height="30px" viewBox="0 0 30 30" enable-background="new 0 0 30 30" xml:space="preserve">
<g>
	<path fill="#FFFFFF" d="M15,0C6.716,0,0,6.716,0,15c0,8.284,6.716,15,15,15c8.284,0,15-6.716,15-15C30,6.716,23.284,0,15,0z
		 M21.928,13.696l-6.825,9.24l-6.824-9.24c-0.578-0.68-1.154-3.043,0.828-4.35c1.688-1.113,3.292-0.27,4.132,0.706
		c0.313,0.365,0.85,0.794,1.864,0.794c1.014,0,1.552-0.43,1.865-0.794c0.84-0.976,2.444-1.819,4.132-0.706
		C23.082,10.653,22.505,13.017,21.928,13.696z"/>
</g>
<g id="Heart_Coin_2_">
	<g id="Coin_2_">
		<path fill="#454546" d="M15,1c7.72,0,14,6.28,14,14s-6.28,14-14,14S1,22.72,1,15S7.28,1,15,1 M15,0C6.716,0,0,6.716,0,15
			s6.716,15,15,15c8.284,0,15-6.716,15-15S23.284,0,15,0L15,0z"/>
	</g>
	<g id="Heart_2_">
		<path fill="#454546" d="M19.445,9.817c0.367,0,0.739,0.122,1.104,0.363c0.518,0.342,0.822,0.806,0.904,1.38
			c0.1,0.701-0.162,1.34-0.288,1.488l-0.022,0.026l-0.02,0.027l-6.021,8.151l-6.02-8.151l-0.02-0.028l-0.022-0.026
			c-0.126-0.148-0.388-0.787-0.288-1.487c0.082-0.574,0.386-1.038,0.904-1.38c0.366-0.241,0.737-0.363,1.104-0.363
			c0.887,0,1.54,0.679,1.718,0.886c0.65,0.758,1.533,1.143,2.623,1.143c1.089,0,1.972-0.384,2.623-1.142
			C17.905,10.496,18.558,9.817,19.445,9.817 M19.445,8.817c-1.029,0-1.921,0.588-2.477,1.235c-0.313,0.364-0.851,0.794-1.865,0.794
			s-1.551-0.429-1.864-0.794c-0.556-0.646-1.448-1.235-2.477-1.235c-0.525,0-1.085,0.153-1.655,0.529
			c-1.982,1.307-1.406,3.67-0.828,4.35l6.824,9.24l6.825-9.24c0.577-0.679,1.154-3.043-0.828-4.35
			C20.53,8.97,19.97,8.817,19.445,8.817L19.445,8.817z"/>
	</g>
</g>
<g>
</g>
<g>
</g>
<g>
</g>
<g>
</g>
<g>
</g>
<g>
</g>
</svg>
