<?xml version="1.0" encoding="utf-8"?>
<!-- Generator: Adobe Illustrator 17.0.0, SVG Export Plug-In . SVG Version: 6.00 Build 0)  -->
<!DOCTYPE svg PUBLIC "-//W3C//DTD SVG 1.0//EN" "http://www.w3.org/TR/2001/REC-SVG-20010904/DTD/svg10.dtd">
<svg version="1.0" id="Gittip_Logo" xmlns="http://www.w3.org/2000/svg" xmlns:xlink="http://www.w3.org/1999/xlink" x="0px"
	 y="0px" width="342.4px" height="128px" viewBox="0 0 342.4 128" enable-background="new 0 0 342.4 128" xml:space="preserve">
<g id="Wordmark">
	<path d="M155.016,83.172c-10.025,0-17.847-8.025-17.847-17.998c0-9.875,7.919-17.995,17.847-17.995
		c5.612,0,10.022,2.255,13.434,6.215l-5.316,4.611c-1.956-2.305-4.913-3.961-8.172-3.961c-5.963,0-10.575,4.866-10.575,11.13
		c0,6.367,4.813,11.18,10.575,11.18c2.556,0,5.363-0.753,7.169-2.556v-4.365h-7.016v-6.063H168.8v13.235
		C165.441,80.612,161.028,83.172,155.016,83.172z"/>
	<path d="M181.841,82.716v-5.912h4.359v-23.21h-4.359V47.63h15.887v5.964h-4.359v23.21h4.359v5.912H181.841z"/>
	<path d="M215.763,82.716v-28.47h-6.719V47.63H229.7v6.616h-6.719v28.47H215.763z"/>
	<path d="M246.775,82.716v-28.47h-6.722V47.63h20.65v6.616h-6.712v28.47H246.775z"/>
	<path d="M272.05,82.716v-5.912h4.357v-23.21h-4.357V47.63h15.891v5.964h-4.362v23.21h4.362v5.912H272.05z"/>
	<path d="M302.294,82.716V47.63h12.781c6.913,0,11.325,4.461,11.325,11.528s-4.413,11.48-11.325,11.48h-5.668v12.078H302.294z
		 M319.531,59.158c0-3.208-2.053-5.011-5.563-5.011h-4.562v9.973h4.562C317.428,64.12,319.531,62.367,319.531,59.158z"/>
</g>
<path id="Heart_Coin" d="M63.998,16C37.49,16,16,37.489,16,63.998C16,90.509,37.49,112,63.998,112c26.514,0,48-21.491,48-48.002
	C111.998,37.489,90.513,16,63.998,16z M86.169,59.827L64.33,89.394L42.492,59.827c-1.848-2.173-3.692-9.738,2.65-13.919
	c5.402-3.561,10.533-0.864,13.222,2.261c1.003,1.166,2.722,2.539,5.966,2.539c3.245,0,4.964-1.373,5.967-2.539
	c2.688-3.125,7.819-5.822,13.222-2.261C89.861,50.089,88.016,57.653,86.169,59.827z"/>
<g>
</g>
<g>
</g>
<g>
</g>
<g>
</g>
<g>
</g>
<g>
</g>
<g>
</g>
<g>
</g>
<g>
</g>
<g>
</g>
<g>
</g>
<g>
</g>
<g>
</g>
<g>
</g>
<g>
</g>
</svg>
