<?xml version="1.0" encoding="utf-8"?>
<!-- Generator: Adobe Illustrator 17.0.0, SVG Export Plug-In . SVG Version: 6.00 Build 0)  -->
<!DOCTYPE svg PUBLIC "-//W3C//DTD SVG 1.1//EN" "http://www.w3.org/Graphics/SVG/1.1/DTD/svg11.dtd">
<svg version="1.1" id="Layer_1" xmlns="http://www.w3.org/2000/svg" xmlns:xlink="http://www.w3.org/1999/xlink" x="0px" y="0px"
	 width="360px" height="120px" viewBox="-20 -40 360 120" enable-background="new -20 -40 360 120" xml:space="preserve">
<g id="Background" display="none">
	<rect display="inline" fill="#359113" width="124" height="40"/>
</g>
<g id="Wordmark">
	<path id="Heart_Coin" fill="#663300" d="M84.166,20c0,23.245-18.837,42.084-42.084,42.084C18.843,62.084,0,43.242,0,20
		s18.843-42.084,42.081-42.084C65.329-22.084,84.166-3.245,84.166,20z M59.198,4.137c-4.736-3.123-9.236-0.758-11.593,1.984
		c-0.881,1.021-2.388,2.225-5.232,2.225s-4.352-1.204-5.23-2.225c-2.357-2.741-6.857-5.103-11.593-1.984
		c-5.561,3.667-3.945,10.297-2.323,12.204l19.146,25.924l0,0l0,0l0,0l0,0l19.148-25.924C63.14,14.436,64.756,7.804,59.198,4.137z"/>
	<g id="Gratipay">
		<path fill="#454545" d="M117.595,35.282c-11.77,0-19.398-7.931-19.398-18.439c0-11.366,8.638-19.903,20.408-19.903
			c5.353,0,9.952,1.869,12.477,3.636l-2.219,7.275c-2.172-1.667-6.164-3.283-10.207-3.283c-7.121,0-11.413,4.901-11.413,11.618
			c0,7.676,5.151,11.722,11.113,11.722c2.02,0,3.737-0.303,5.305-0.909v-3.891c0-0.657,0-2.121-0.101-2.929
			c-1.717-0.051-1.111-0.051-2.879-0.051c-1.818,0-3.232,0.051-5.154,0.152c0.154-2.677,0.202-4.798,0.101-6.77
			c3.184,0.152,4.747,0.202,7.073,0.202c4.144,0,5.81-0.05,9.346-0.202c-0.253,2.071-0.404,9.346-0.404,12.729v5.356
			C128.556,33.411,124.314,35.282,117.595,35.282z"/>
		<path fill="#454545" d="M156.834,15.376c-4.447-0.556-8.944,0.758-8.944,5.659v7.628c0,1.97,0.053,4.295,0.202,5.76h-9.749
			c0.3-2.424,0.354-6.262,0.354-9.545v-8.487c0-3.232-0.154-6.113-0.454-8.487c1.869-0.05,7.474-0.758,9.143-1.01l0.454,6.467
			c1.717-3.889,4.851-6.313,9.646-6.77L156.834,15.376z"/>
		<path fill="#454545" d="M167.484,35.128c-5,0-8.181-2.828-8.181-7.474c0-5.409,4.596-9.045,13.84-9.045
			c0.609,0,1.316,0.051,2.124,0.101v-0.758c0.101-2.727-1.111-4.194-4.447-4.194c-3.03,0-6.262,1.162-8.335,2.475l-1.162-6.562
			c2.929-1.768,7.174-3.081,11.416-3.081c7.982,0,11.467,3.687,11.315,10.962l-0.252,9.545c-0.053,1.568,0.455,2.023,1.616,2.023
			c0.455,0,1.061-0.101,1.566-0.3l-0.404,5.353c-1.568,0.553-2.932,0.909-4.8,0.909c-2.98,0-5.305-1.215-6.06-4.394
			C174.206,33.411,170.921,35.128,167.484,35.128z M175.062,25.129l0.101-2.525c-0.556-0.053-1.061-0.101-1.717-0.101
			c-4.091,0-5.707,1.768-5.707,3.939c0,1.922,1.111,3.285,3.232,3.285C173.297,29.727,174.961,28.058,175.062,25.129z"/>
		<path fill="#454545" d="M209.052,33.764c-1.717,0.96-4.192,1.568-6.568,1.568c-5.858,0-9.292-2.323-9.292-9.548V13.659h-4.598
			l1.316-6.366h3.384l0.556-5.555l8.537-2.879v8.436h6.868c-0.101,1.212-0.152,4.343-0.152,6.366h-6.719v11.113
			c0,2.831,1.061,3.538,2.828,3.538c1.414,0,2.879-0.508,3.992-1.215L209.052,33.764z"/>
		<path fill="#454545" d="M219.099,2.698c-2.932,0-5.154-1.919-5.154-4.596c0-2.929,2.376-4.952,5.305-4.952
			c2.831,0,5.154,1.97,5.154,4.649C224.402,0.728,222.028,2.698,219.099,2.698z M213.945,34.421
			c0.253-2.424,0.407-5.909,0.407-9.194v-8.285c0-3.232-0.154-7.073-0.407-9.497c2.023,0,8.133-0.354,9.8-0.505
			c-0.152,1.465-0.202,4.04-0.202,6.012v16.014c0,1.97,0.053,3.992,0.202,5.454H213.945z"/>
		<path fill="#454545" d="M245.915,35.434c-2.629,0-4.497-0.606-6.06-1.616v6.868c0,1.869,0.05,3.79,0.199,5.202
			c-1.111,0.101-8.838,0.76-9.75,0.962c0.253-2.376,0.303-6.063,0.303-9.295V17.147c0-3.232-0.101-6.871-0.407-9.396
			c2.023,0,7.174-0.505,8.891-0.758l0.354,3.485c2.023-2.222,4.699-3.889,8.184-3.889c7.174,0,11.368,6.366,11.368,13.386
			C259,29.166,252.789,35.434,245.915,35.434z M244.299,13.154c-1.869,0-3.384,1.01-4.444,2.424v11.669
			c1.061,1.007,2.323,1.667,4.444,1.667c3.437,0,5.555-3.737,5.555-8.131C249.857,15.528,247.43,13.154,244.299,13.154z"/>
		<path fill="#454545" d="M270.607,35.128c-5,0-8.181-2.828-8.181-7.474c0-5.409,4.596-9.045,13.84-9.045
			c0.609,0,1.316,0.051,2.124,0.101v-0.758c0.101-2.727-1.111-4.194-4.447-4.194c-3.03,0-6.262,1.162-8.335,2.475l-1.162-6.568
			c2.929-1.768,7.174-3.081,11.416-3.081c7.982,0,11.467,3.687,11.315,10.962l-0.253,9.545c-0.053,1.568,0.455,2.023,1.616,2.023
			c0.455,0,1.061-0.101,1.566-0.3l-0.404,5.353c-1.568,0.553-2.932,0.909-4.8,0.909c-2.98,0-5.305-1.215-6.06-4.394
			C277.329,33.411,274.044,35.128,270.607,35.128z M278.185,25.129l0.101-2.525c-0.556-0.053-1.061-0.101-1.717-0.101
			c-4.091,0-5.707,1.768-5.707,3.939c0,1.922,1.111,3.285,3.232,3.285C276.418,29.727,278.084,28.058,278.185,25.129z"/>
		<path fill="#454545" d="M301.11,32.148c-0.909-2.323-1.515-3.891-2.73-6.669l-3.182-7.272c-1.414-3.283-3.485-8.032-4.747-10.507
			c1.061,0,8.588-0.505,9.444-0.606l5.81,16.115l2.222-6.871c1.01-3.033,2.172-6.568,2.98-8.891c3.384,0,6.366,0,9.093-0.202
			l-11.469,28.039c-0.808,2.071-3.182,8.083-4.091,10.911c-3.184,0-6.82,0.101-9.497,0.404L301.11,32.148z"/>
	</g>
</g>
</svg>
