<?xml version="1.0" encoding="utf-8"?>
<!-- Generator: Adobe Illustrator 17.0.0, SVG Export Plug-In . SVG Version: 6.00 Build 0)  -->
<!DOCTYPE svg PUBLIC "-//W3C//DTD SVG 1.0//EN" "http://www.w3.org/TR/2001/REC-SVG-20010904/DTD/svg10.dtd">
<svg version="1.0" id="Gratipay_Logo" xmlns="http://www.w3.org/2000/svg" xmlns:xlink="http://www.w3.org/1999/xlink" x="0px"
	 y="0px" width="128px" height="128px" viewBox="0 0 128 128" enable-background="new 0 0 128 128" xml:space="preserve">
<path id="Heart_Coin" fill="#663300" d="M63.998,16C37.49,16,16,37.489,16,63.998C16,90.509,37.49,112,63.998,112
	c26.514,0,48-21.491,48-48.002C111.998,37.489,90.513,16,63.998,16z M86.169,59.827L64.33,89.394L42.492,59.827
	c-1.848-2.173-3.692-9.738,2.65-13.919c5.402-3.561,10.533-0.864,13.222,2.261c1.003,1.166,2.722,2.539,5.966,2.539
	c3.245,0,4.964-1.373,5.967-2.539c2.688-3.125,7.819-5.822,13.222-2.261C89.861,50.089,88.016,57.653,86.169,59.827z"/>
<g>
</g>
<g>
</g>
<g>
</g>
<g>
</g>
<g>
</g>
<g>
</g>
<g>
</g>
<g>
</g>
<g>
</g>
<g>
</g>
<g>
</g>
<g>
</g>
<g>
</g>
<g>
</g>
<g>
</g>
</svg>
