<?xml version="1.0" encoding="utf-8"?>
<!-- Generator: Adobe Illustrator 17.0.0, SVG Export Plug-In . SVG Version: 6.00 Build 0)  -->
<!DOCTYPE svg PUBLIC "-//W3C//DTD SVG 1.1//EN" "http://www.w3.org/Graphics/SVG/1.1/DTD/svg11.dtd">
<svg version="1.1" xmlns="http://www.w3.org/2000/svg" xmlns:xlink="http://www.w3.org/1999/xlink" x="0px" y="0px"
	 width="174.557px" height="174.557px" viewBox="16.351 -91.367 174.557 174.557"
	 enable-background="new 16.351 -91.367 174.557 174.557" xml:space="preserve">
<g id="Layer_1">
	<g display="none">
		
			<line display="inline" fill="none" stroke="#454546" stroke-width="0.15" stroke-miterlimit="10" x1="102.977" y1="25.069" x2="103.436" y2="25.069"/>
		
			<line display="inline" fill="none" stroke="#454546" stroke-width="0.15" stroke-miterlimit="10" x1="105.238" y1="34.897" x2="105.172" y2="35.389"/>
		
			<line display="inline" fill="none" stroke="#454546" stroke-width="0.15" stroke-miterlimit="10" x1="105.172" y1="35.389" x2="104.976" y2="35.88"/>
		
			<line display="inline" fill="none" stroke="#454546" stroke-width="0.15" stroke-miterlimit="10" x1="104.976" y1="35.88" x2="104.779" y2="36.142"/>
		
			<line display="inline" fill="none" stroke="#454546" stroke-width="0.15" stroke-miterlimit="10" x1="103.567" y1="36.863" x2="103.338" y2="36.896"/>
		
			<line display="inline" fill="none" stroke="#454546" stroke-width="0.15" stroke-miterlimit="10" x1="103.338" y1="36.896" x2="102.814" y2="36.863"/>
		
			<line display="inline" fill="none" stroke="#454546" stroke-width="0.15" stroke-miterlimit="10" x1="102.814" y1="36.863" x2="102.355" y2="36.732"/>
		
			<line display="inline" fill="none" stroke="#454546" stroke-width="0.15" stroke-miterlimit="10" x1="102.355" y1="36.732" x2="101.929" y2="36.437"/>
		
			<line display="inline" fill="none" stroke="#454546" stroke-width="0.15" stroke-miterlimit="10" x1="101.929" y1="36.437" x2="101.569" y2="36.077"/>
		
			<line display="inline" fill="none" stroke="#454546" stroke-width="0.15" stroke-miterlimit="10" x1="101.569" y1="36.077" x2="101.339" y2="35.618"/>
		
			<rect x="101.339" y="35.618" display="inline" fill="none" stroke="#454546" stroke-width="0.15" stroke-miterlimit="10" width="0.033" height="0.033"/>
		
			<line display="inline" fill="none" stroke="#454546" stroke-width="0.15" stroke-miterlimit="10" x1="101.307" y1="34.209" x2="101.339" y2="34.144"/>
		
			<line display="inline" fill="none" stroke="#454546" stroke-width="0.15" stroke-miterlimit="10" x1="101.339" y1="34.144" x2="101.569" y2="33.685"/>
		
			<line display="inline" fill="none" stroke="#454546" stroke-width="0.15" stroke-miterlimit="10" x1="101.569" y1="33.685" x2="101.929" y2="33.325"/>
		
			<line display="inline" fill="none" stroke="#454546" stroke-width="0.15" stroke-miterlimit="10" x1="101.929" y1="33.325" x2="102.355" y2="33.063"/>
		
			<line display="inline" fill="none" stroke="#454546" stroke-width="0.15" stroke-miterlimit="10" x1="102.355" y1="33.063" x2="102.814" y2="32.899"/>
		
			<line display="inline" fill="none" stroke="#454546" stroke-width="0.15" stroke-miterlimit="10" x1="102.814" y1="32.899" x2="103.338" y2="32.866"/>
		
			<line display="inline" fill="none" stroke="#454546" stroke-width="0.15" stroke-miterlimit="10" x1="103.338" y1="32.866" x2="103.534" y2="32.899"/>
		
			<line display="inline" fill="none" stroke="#454546" stroke-width="0.15" stroke-miterlimit="10" x1="104.746" y1="33.587" x2="104.976" y2="33.914"/>
		
			<line display="inline" fill="none" stroke="#454546" stroke-width="0.15" stroke-miterlimit="10" x1="104.976" y1="33.914" x2="105.172" y2="34.373"/>
		
			<line display="inline" fill="none" stroke="#454546" stroke-width="0.15" stroke-miterlimit="10" x1="105.172" y1="34.373" x2="105.238" y2="34.897"/>
		
			<line display="inline" fill="none" stroke="#454546" stroke-width="0.15" stroke-miterlimit="10" x1="113.035" y1="34.897" x2="112.969" y2="33.718"/>
		
			<line display="inline" fill="none" stroke="#454546" stroke-width="0.15" stroke-miterlimit="10" x1="112.969" y1="33.718" x2="112.773" y2="32.571"/>
		
			<line display="inline" fill="none" stroke="#454546" stroke-width="0.15" stroke-miterlimit="10" x1="112.773" y1="32.571" x2="112.412" y2="31.457"/>
		
			<line display="inline" fill="none" stroke="#454546" stroke-width="0.15" stroke-miterlimit="10" x1="112.412" y1="31.457" x2="111.954" y2="30.376"/>
		
			<line display="inline" fill="none" stroke="#454546" stroke-width="0.15" stroke-miterlimit="10" x1="111.954" y1="30.376" x2="111.331" y2="29.361"/>
		
			<line display="inline" fill="none" stroke="#454546" stroke-width="0.15" stroke-miterlimit="10" x1="111.331" y1="29.361" x2="110.643" y2="28.444"/>
		
			<line display="inline" fill="none" stroke="#454546" stroke-width="0.15" stroke-miterlimit="10" x1="110.643" y1="28.444" x2="109.824" y2="27.625"/>
		
			<line display="inline" fill="none" stroke="#454546" stroke-width="0.15" stroke-miterlimit="10" x1="109.824" y1="27.625" x2="108.907" y2="26.871"/>
		
			<line display="inline" fill="none" stroke="#454546" stroke-width="0.15" stroke-miterlimit="10" x1="108.907" y1="26.871" x2="107.924" y2="26.249"/>
		
			<line display="inline" fill="none" stroke="#454546" stroke-width="0.15" stroke-miterlimit="10" x1="107.924" y1="26.249" x2="106.843" y2="25.757"/>
		
			<line display="inline" fill="none" stroke="#454546" stroke-width="0.15" stroke-miterlimit="10" x1="106.843" y1="25.757" x2="105.729" y2="25.397"/>
		
			<line display="inline" fill="none" stroke="#454546" stroke-width="0.15" stroke-miterlimit="10" x1="105.729" y1="25.397" x2="104.583" y2="25.168"/>
		
			<line display="inline" fill="none" stroke="#454546" stroke-width="0.15" stroke-miterlimit="10" x1="104.583" y1="25.168" x2="103.436" y2="25.069"/>
		
			<line display="inline" fill="none" stroke="#454546" stroke-width="0.15" stroke-miterlimit="10" x1="96.425" y1="42.006" x2="96.491" y2="42.072"/>
		
			<line display="inline" fill="none" stroke="#454546" stroke-width="0.15" stroke-miterlimit="10" x1="96.589" y1="42.17" x2="96.687" y2="42.236"/>
		
			<line display="inline" fill="none" stroke="#454546" stroke-width="0.15" stroke-miterlimit="10" x1="102.519" y1="44.693" x2="102.748" y2="44.693"/>
		
			<line display="inline" fill="none" stroke="#454546" stroke-width="0.15" stroke-miterlimit="10" x1="103.01" y1="44.693" x2="103.272" y2="44.725"/>
		
			<rect x="109.857" y="42.137" display="inline" fill="none" stroke="#454546" stroke-width="0.15" stroke-miterlimit="10" width="0.033" height="0.033"/>
		
			<rect x="109.955" y="42.039" display="inline" fill="none" stroke="#454546" stroke-width="0.15" stroke-miterlimit="10" width="0.033" height="0.033"/>
		
			<line display="inline" fill="none" stroke="#454546" stroke-width="0.15" stroke-miterlimit="10" x1="112.904" y1="36.47" x2="113.035" y2="34.897"/>
		
			<line display="inline" fill="none" stroke="#454546" stroke-width="0.15" stroke-miterlimit="10" x1="109.595" y1="41.286" x2="108.219" y2="41.286"/>
		
			<line display="inline" fill="none" stroke="#454546" stroke-width="0.15" stroke-miterlimit="10" x1="106.745" y1="41.286" x2="103.96" y2="41.286"/>
		
			<line display="inline" fill="none" stroke="#454546" stroke-width="0.15" stroke-miterlimit="10" x1="102.486" y1="41.286" x2="99.701" y2="41.286"/>
		
			<line display="inline" fill="none" stroke="#454546" stroke-width="0.15" stroke-miterlimit="10" x1="98.227" y1="41.286" x2="96.818" y2="41.286"/>
		
			<line display="inline" fill="none" stroke="#454546" stroke-width="0.15" stroke-miterlimit="10" x1="109.595" y1="28.509" x2="109.595" y2="29.885"/>
		
			<line display="inline" fill="none" stroke="#454546" stroke-width="0.15" stroke-miterlimit="10" x1="109.595" y1="31.326" x2="109.595" y2="34.144"/>
		
			<line display="inline" fill="none" stroke="#454546" stroke-width="0.15" stroke-miterlimit="10" x1="109.595" y1="35.585" x2="109.595" y2="38.403"/>
		
			<line display="inline" fill="none" stroke="#454546" stroke-width="0.15" stroke-miterlimit="10" x1="109.595" y1="39.844" x2="109.595" y2="41.286"/>
		
			<line display="inline" fill="none" stroke="#454546" stroke-width="0.15" stroke-miterlimit="10" x1="96.818" y1="41.286" x2="96.818" y2="39.877"/>
		
			<line display="inline" fill="none" stroke="#454546" stroke-width="0.15" stroke-miterlimit="10" x1="96.818" y1="38.435" x2="96.818" y2="35.618"/>
		
			<line display="inline" fill="none" stroke="#454546" stroke-width="0.15" stroke-miterlimit="10" x1="96.818" y1="34.177" x2="96.818" y2="31.359"/>
		
			<line display="inline" fill="none" stroke="#454546" stroke-width="0.15" stroke-miterlimit="10" x1="96.818" y1="29.918" x2="96.818" y2="28.509"/>
		
			<line display="inline" fill="none" stroke="#454546" stroke-width="0.15" stroke-miterlimit="10" x1="96.818" y1="28.509" x2="98.194" y2="28.509"/>
		
			<line display="inline" fill="none" stroke="#454546" stroke-width="0.15" stroke-miterlimit="10" x1="99.669" y1="28.509" x2="102.453" y2="28.509"/>
		
			<line display="inline" fill="none" stroke="#454546" stroke-width="0.15" stroke-miterlimit="10" x1="103.927" y1="28.509" x2="106.712" y2="28.509"/>
		
			<line display="inline" fill="none" stroke="#454546" stroke-width="0.15" stroke-miterlimit="10" x1="108.186" y1="28.509" x2="109.595" y2="28.509"/>
		
			<line display="inline" fill="none" stroke="#454546" stroke-width="0.15" stroke-miterlimit="10" x1="109.595" y1="28.509" x2="109.693" y2="28.378"/>
		
			<line display="inline" fill="none" stroke="#454546" stroke-width="0.15" stroke-miterlimit="10" x1="109.857" y1="28.247" x2="109.988" y2="28.116"/>
		
			<line display="inline" fill="none" stroke="#454546" stroke-width="0.15" stroke-miterlimit="10" x1="96.425" y1="28.116" x2="96.524" y2="28.214"/>
		
			<line display="inline" fill="none" stroke="#454546" stroke-width="0.15" stroke-miterlimit="10" x1="96.687" y1="28.378" x2="96.818" y2="28.509"/>
		
			<line display="inline" fill="none" stroke="#454546" stroke-width="0.15" stroke-miterlimit="10" x1="109.595" y1="41.286" x2="109.693" y2="41.384"/>
		
			<line display="inline" fill="none" stroke="#454546" stroke-width="0.15" stroke-miterlimit="10" x1="109.857" y1="41.548" x2="109.988" y2="41.679"/>
		
			<line display="inline" fill="none" stroke="#454546" stroke-width="0.15" stroke-miterlimit="10" x1="96.425" y1="41.679" x2="96.524" y2="41.548"/>
		
			<line display="inline" fill="none" stroke="#454546" stroke-width="0.15" stroke-miterlimit="10" x1="96.687" y1="41.417" x2="96.818" y2="41.286"/>
		
			<line display="inline" fill="none" stroke="#454546" stroke-width="0.15" stroke-miterlimit="10" x1="99.505" y1="31.195" x2="99.505" y2="33.62"/>
		
			<line display="inline" fill="none" stroke="#454546" stroke-width="0.15" stroke-miterlimit="10" x1="99.505" y1="36.109" x2="99.505" y2="38.599"/>
		
			<line display="inline" fill="none" stroke="#454546" stroke-width="0.15" stroke-miterlimit="10" x1="105.172" y1="29.95" x2="104.779" y2="30.344"/>
		
			<line display="inline" fill="none" stroke="#454546" stroke-width="0.15" stroke-miterlimit="10" x1="104.779" y1="30.344" x2="104.288" y2="30.638"/>
		
			<line display="inline" fill="none" stroke="#454546" stroke-width="0.15" stroke-miterlimit="10" x1="104.288" y1="30.638" x2="103.764" y2="30.802"/>
		
			<line display="inline" fill="none" stroke="#454546" stroke-width="0.15" stroke-miterlimit="10" x1="103.764" y1="30.802" x2="103.207" y2="30.868"/>
		
			<line display="inline" fill="none" stroke="#454546" stroke-width="0.15" stroke-miterlimit="10" x1="103.207" y1="30.868" x2="102.65" y2="30.802"/>
		
			<line display="inline" fill="none" stroke="#454546" stroke-width="0.15" stroke-miterlimit="10" x1="102.65" y1="30.802" x2="102.126" y2="30.638"/>
		
			<line display="inline" fill="none" stroke="#454546" stroke-width="0.15" stroke-miterlimit="10" x1="102.126" y1="30.638" x2="101.634" y2="30.344"/>
		
			<line display="inline" fill="none" stroke="#454546" stroke-width="0.15" stroke-miterlimit="10" x1="101.634" y1="30.344" x2="101.241" y2="29.95"/>
		
			<line display="inline" fill="none" stroke="#454546" stroke-width="0.15" stroke-miterlimit="10" x1="101.241" y1="29.95" x2="100.782" y2="29.492"/>
		
			<line display="inline" fill="none" stroke="#454546" stroke-width="0.15" stroke-miterlimit="10" x1="100.782" y1="29.492" x2="100.258" y2="29.164"/>
		
			<line display="inline" fill="none" stroke="#454546" stroke-width="0.15" stroke-miterlimit="10" x1="100.258" y1="29.164" x2="99.669" y2="28.935"/>
		
			<line display="inline" fill="none" stroke="#454546" stroke-width="0.15" stroke-miterlimit="10" x1="99.669" y1="28.935" x2="99.046" y2="28.837"/>
		
			<line display="inline" fill="none" stroke="#454546" stroke-width="0.15" stroke-miterlimit="10" x1="99.046" y1="28.837" x2="98.424" y2="28.869"/>
		
			<line display="inline" fill="none" stroke="#454546" stroke-width="0.15" stroke-miterlimit="10" x1="98.424" y1="28.869" x2="97.801" y2="29.033"/>
		
			<line display="inline" fill="none" stroke="#454546" stroke-width="0.15" stroke-miterlimit="10" x1="97.801" y1="29.033" x2="97.244" y2="29.328"/>
		
			<line display="inline" fill="none" stroke="#454546" stroke-width="0.15" stroke-miterlimit="10" x1="97.244" y1="29.328" x2="96.753" y2="29.688"/>
		
			<line display="inline" fill="none" stroke="#454546" stroke-width="0.15" stroke-miterlimit="10" x1="96.753" y1="29.688" x2="96.36" y2="30.18"/>
		
			<line display="inline" fill="none" stroke="#454546" stroke-width="0.15" stroke-miterlimit="10" x1="96.36" y1="30.18" x2="96.065" y2="30.737"/>
		
			<line display="inline" fill="none" stroke="#454546" stroke-width="0.15" stroke-miterlimit="10" x1="96.065" y1="30.737" x2="95.868" y2="31.359"/>
		
			<line display="inline" fill="none" stroke="#454546" stroke-width="0.15" stroke-miterlimit="10" x1="95.868" y1="31.359" x2="95.836" y2="31.982"/>
		
			<line display="inline" fill="none" stroke="#454546" stroke-width="0.15" stroke-miterlimit="10" x1="95.836" y1="31.982" x2="95.901" y2="32.604"/>
		
			<line display="inline" fill="none" stroke="#454546" stroke-width="0.15" stroke-miterlimit="10" x1="95.901" y1="32.604" x2="96.098" y2="33.194"/>
		
			<line display="inline" fill="none" stroke="#454546" stroke-width="0.15" stroke-miterlimit="10" x1="96.098" y1="33.194" x2="96.425" y2="33.718"/>
		
			<line display="inline" fill="none" stroke="#454546" stroke-width="0.15" stroke-miterlimit="10" x1="96.425" y1="33.718" x2="103.207" y2="42.924"/>
		
			<line display="inline" fill="none" stroke="#454546" stroke-width="0.15" stroke-miterlimit="10" x1="103.207" y1="42.924" x2="109.988" y2="33.718"/>
		
			<line display="inline" fill="none" stroke="#454546" stroke-width="0.15" stroke-miterlimit="10" x1="109.988" y1="33.718" x2="110.316" y2="33.194"/>
		
			<line display="inline" fill="none" stroke="#454546" stroke-width="0.15" stroke-miterlimit="10" x1="110.316" y1="33.194" x2="110.512" y2="32.604"/>
		
			<line display="inline" fill="none" stroke="#454546" stroke-width="0.15" stroke-miterlimit="10" x1="110.512" y1="32.604" x2="110.578" y2="31.982"/>
		
			<line display="inline" fill="none" stroke="#454546" stroke-width="0.15" stroke-miterlimit="10" x1="110.578" y1="31.982" x2="110.545" y2="31.359"/>
		
			<line display="inline" fill="none" stroke="#454546" stroke-width="0.15" stroke-miterlimit="10" x1="110.545" y1="31.359" x2="110.348" y2="30.737"/>
		
			<line display="inline" fill="none" stroke="#454546" stroke-width="0.15" stroke-miterlimit="10" x1="110.348" y1="30.737" x2="110.054" y2="30.18"/>
		
			<line display="inline" fill="none" stroke="#454546" stroke-width="0.15" stroke-miterlimit="10" x1="110.054" y1="30.18" x2="109.66" y2="29.688"/>
		
			<line display="inline" fill="none" stroke="#454546" stroke-width="0.15" stroke-miterlimit="10" x1="109.66" y1="29.688" x2="109.169" y2="29.328"/>
		
			<line display="inline" fill="none" stroke="#454546" stroke-width="0.15" stroke-miterlimit="10" x1="109.169" y1="29.328" x2="108.612" y2="29.033"/>
		
			<line display="inline" fill="none" stroke="#454546" stroke-width="0.15" stroke-miterlimit="10" x1="108.612" y1="29.033" x2="107.99" y2="28.869"/>
		
			<line display="inline" fill="none" stroke="#454546" stroke-width="0.15" stroke-miterlimit="10" x1="107.99" y1="28.869" x2="107.367" y2="28.837"/>
		
			<line display="inline" fill="none" stroke="#454546" stroke-width="0.15" stroke-miterlimit="10" x1="107.367" y1="28.837" x2="106.745" y2="28.935"/>
		
			<line display="inline" fill="none" stroke="#454546" stroke-width="0.15" stroke-miterlimit="10" x1="106.745" y1="28.935" x2="106.155" y2="29.164"/>
		
			<line display="inline" fill="none" stroke="#454546" stroke-width="0.15" stroke-miterlimit="10" x1="106.155" y1="29.164" x2="105.631" y2="29.492"/>
		
			<line display="inline" fill="none" stroke="#454546" stroke-width="0.15" stroke-miterlimit="10" x1="105.631" y1="29.492" x2="105.172" y2="29.95"/>
		
			<line display="inline" fill="none" stroke="#454546" stroke-width="0.15" stroke-miterlimit="10" x1="105.664" y1="34.897" x2="105.598" y2="35.454"/>
		
			<line display="inline" fill="none" stroke="#454546" stroke-width="0.15" stroke-miterlimit="10" x1="105.598" y1="35.454" x2="105.402" y2="35.978"/>
		
			<line display="inline" fill="none" stroke="#454546" stroke-width="0.15" stroke-miterlimit="10" x1="105.402" y1="35.978" x2="105.074" y2="36.47"/>
		
			<line display="inline" fill="none" stroke="#454546" stroke-width="0.15" stroke-miterlimit="10" x1="105.074" y1="36.47" x2="104.681" y2="36.863"/>
		
			<line display="inline" fill="none" stroke="#454546" stroke-width="0.15" stroke-miterlimit="10" x1="104.681" y1="36.863" x2="104.19" y2="37.158"/>
		
			<line display="inline" fill="none" stroke="#454546" stroke-width="0.15" stroke-miterlimit="10" x1="104.19" y1="37.158" x2="103.633" y2="37.322"/>
		
			<line display="inline" fill="none" stroke="#454546" stroke-width="0.15" stroke-miterlimit="10" x1="103.633" y1="37.322" x2="103.076" y2="37.354"/>
		
			<line display="inline" fill="none" stroke="#454546" stroke-width="0.15" stroke-miterlimit="10" x1="103.076" y1="37.354" x2="102.486" y2="37.256"/>
		
			<line display="inline" fill="none" stroke="#454546" stroke-width="0.15" stroke-miterlimit="10" x1="102.486" y1="37.256" x2="101.962" y2="37.027"/>
		
			<line display="inline" fill="none" stroke="#454546" stroke-width="0.15" stroke-miterlimit="10" x1="101.962" y1="37.027" x2="101.536" y2="36.666"/>
		
			<line display="inline" fill="none" stroke="#454546" stroke-width="0.15" stroke-miterlimit="10" x1="101.536" y1="36.666" x2="101.143" y2="36.24"/>
		
			<line display="inline" fill="none" stroke="#454546" stroke-width="0.15" stroke-miterlimit="10" x1="101.143" y1="36.24" x2="100.913" y2="35.716"/>
		
			<line display="inline" fill="none" stroke="#454546" stroke-width="0.15" stroke-miterlimit="10" x1="100.913" y1="35.716" x2="100.782" y2="35.159"/>
		
			<line display="inline" fill="none" stroke="#454546" stroke-width="0.15" stroke-miterlimit="10" x1="100.782" y1="35.159" x2="100.782" y2="34.602"/>
		
			<line display="inline" fill="none" stroke="#454546" stroke-width="0.15" stroke-miterlimit="10" x1="100.782" y1="34.602" x2="100.913" y2="34.046"/>
		
			<line display="inline" fill="none" stroke="#454546" stroke-width="0.15" stroke-miterlimit="10" x1="100.913" y1="34.046" x2="101.143" y2="33.554"/>
		
			<line display="inline" fill="none" stroke="#454546" stroke-width="0.15" stroke-miterlimit="10" x1="101.143" y1="33.554" x2="101.536" y2="33.095"/>
		
			<line display="inline" fill="none" stroke="#454546" stroke-width="0.15" stroke-miterlimit="10" x1="101.536" y1="33.095" x2="101.962" y2="32.768"/>
		
			<line display="inline" fill="none" stroke="#454546" stroke-width="0.15" stroke-miterlimit="10" x1="101.962" y1="32.768" x2="102.486" y2="32.539"/>
		
			<line display="inline" fill="none" stroke="#454546" stroke-width="0.15" stroke-miterlimit="10" x1="102.486" y1="32.539" x2="103.076" y2="32.44"/>
		
			<line display="inline" fill="none" stroke="#454546" stroke-width="0.15" stroke-miterlimit="10" x1="103.076" y1="32.44" x2="103.633" y2="32.473"/>
		
			<line display="inline" fill="none" stroke="#454546" stroke-width="0.15" stroke-miterlimit="10" x1="103.633" y1="32.473" x2="104.19" y2="32.637"/>
		
			<line display="inline" fill="none" stroke="#454546" stroke-width="0.15" stroke-miterlimit="10" x1="104.19" y1="32.637" x2="104.681" y2="32.932"/>
		
			<line display="inline" fill="none" stroke="#454546" stroke-width="0.15" stroke-miterlimit="10" x1="104.681" y1="32.932" x2="105.074" y2="33.325"/>
		
			<line display="inline" fill="none" stroke="#454546" stroke-width="0.15" stroke-miterlimit="10" x1="105.074" y1="33.325" x2="105.402" y2="33.783"/>
		
			<line display="inline" fill="none" stroke="#454546" stroke-width="0.15" stroke-miterlimit="10" x1="105.402" y1="33.783" x2="105.598" y2="34.308"/>
		
			<line display="inline" fill="none" stroke="#454546" stroke-width="0.15" stroke-miterlimit="10" x1="105.598" y1="34.308" x2="105.664" y2="34.897"/>
		
			<line display="inline" fill="none" stroke="#454546" stroke-width="0.15" stroke-miterlimit="10" x1="103.436" y1="25.069" x2="104.55" y2="25.168"/>
		
			<line display="inline" fill="none" stroke="#454546" stroke-width="0.15" stroke-miterlimit="10" x1="104.55" y1="25.168" x2="105.631" y2="25.364"/>
		
			<line display="inline" fill="none" stroke="#454546" stroke-width="0.15" stroke-miterlimit="10" x1="105.631" y1="25.364" x2="106.712" y2="25.692"/>
		
			<line display="inline" fill="none" stroke="#454546" stroke-width="0.15" stroke-miterlimit="10" x1="106.712" y1="25.692" x2="107.728" y2="26.15"/>
		
			<line display="inline" fill="none" stroke="#454546" stroke-width="0.15" stroke-miterlimit="10" x1="107.728" y1="26.15" x2="108.71" y2="26.74"/>
		
			<line display="inline" fill="none" stroke="#454546" stroke-width="0.15" stroke-miterlimit="10" x1="108.71" y1="26.74" x2="109.595" y2="27.428"/>
		
			<line display="inline" fill="none" stroke="#454546" stroke-width="0.15" stroke-miterlimit="10" x1="109.595" y1="27.428" x2="110.414" y2="28.181"/>
		
			<line display="inline" fill="none" stroke="#454546" stroke-width="0.15" stroke-miterlimit="10" x1="110.414" y1="28.181" x2="111.102" y2="29.066"/>
		
			<line display="inline" fill="none" stroke="#454546" stroke-width="0.15" stroke-miterlimit="10" x1="111.102" y1="29.066" x2="111.724" y2="29.983"/>
		
			<line display="inline" fill="none" stroke="#454546" stroke-width="0.15" stroke-miterlimit="10" x1="111.724" y1="29.983" x2="112.216" y2="30.999"/>
		
			<line display="inline" fill="none" stroke="#454546" stroke-width="0.15" stroke-miterlimit="10" x1="112.216" y1="30.999" x2="112.609" y2="32.047"/>
		
			<line display="inline" fill="none" stroke="#454546" stroke-width="0.15" stroke-miterlimit="10" x1="112.609" y1="32.047" x2="112.871" y2="33.128"/>
		
			<line display="inline" fill="none" stroke="#454546" stroke-width="0.15" stroke-miterlimit="10" x1="112.871" y1="33.128" x2="113.002" y2="34.242"/>
		
			<line display="inline" fill="none" stroke="#454546" stroke-width="0.15" stroke-miterlimit="10" x1="113.002" y1="34.242" x2="113.035" y2="35.356"/>
		
			<line display="inline" fill="none" stroke="#454546" stroke-width="0.15" stroke-miterlimit="10" x1="113.035" y1="35.356" x2="112.904" y2="36.47"/>
		
			<line display="inline" fill="none" stroke="#454546" stroke-width="0.15" stroke-miterlimit="10" x1="112.904" y1="36.47" x2="112.707" y2="37.453"/>
		
			<line display="inline" fill="none" stroke="#454546" stroke-width="0.15" stroke-miterlimit="10" x1="112.707" y1="37.453" x2="112.38" y2="38.403"/>
		
			<line display="inline" fill="none" stroke="#454546" stroke-width="0.15" stroke-miterlimit="10" x1="112.38" y1="38.403" x2="111.986" y2="39.287"/>
		
			<line display="inline" fill="none" stroke="#454546" stroke-width="0.15" stroke-miterlimit="10" x1="111.986" y1="39.287" x2="111.429" y2="40.27"/>
		
			<line display="inline" fill="none" stroke="#454546" stroke-width="0.15" stroke-miterlimit="10" x1="111.429" y1="40.27" x2="110.774" y2="41.187"/>
		
			<line display="inline" fill="none" stroke="#454546" stroke-width="0.15" stroke-miterlimit="10" x1="110.774" y1="41.187" x2="109.988" y2="42.006"/>
		
			<line display="inline" fill="none" stroke="#454546" stroke-width="0.15" stroke-miterlimit="10" x1="96.425" y1="42.006" x2="95.639" y2="41.187"/>
		
			<line display="inline" fill="none" stroke="#454546" stroke-width="0.15" stroke-miterlimit="10" x1="95.639" y1="41.187" x2="94.984" y2="40.27"/>
		
			<line display="inline" fill="none" stroke="#454546" stroke-width="0.15" stroke-miterlimit="10" x1="94.984" y1="40.27" x2="94.427" y2="39.287"/>
		
			<line display="inline" fill="none" stroke="#454546" stroke-width="0.15" stroke-miterlimit="10" x1="94.427" y1="39.287" x2="94.034" y2="38.403"/>
		
			<line display="inline" fill="none" stroke="#454546" stroke-width="0.15" stroke-miterlimit="10" x1="94.034" y1="38.403" x2="93.706" y2="37.453"/>
		
			<line display="inline" fill="none" stroke="#454546" stroke-width="0.15" stroke-miterlimit="10" x1="93.706" y1="37.453" x2="93.51" y2="36.47"/>
		
			<line display="inline" fill="none" stroke="#454546" stroke-width="0.15" stroke-miterlimit="10" x1="93.51" y1="36.47" x2="93.379" y2="35.356"/>
		
			<line display="inline" fill="none" stroke="#454546" stroke-width="0.15" stroke-miterlimit="10" x1="93.379" y1="35.356" x2="93.411" y2="34.242"/>
		
			<line display="inline" fill="none" stroke="#454546" stroke-width="0.15" stroke-miterlimit="10" x1="93.411" y1="34.242" x2="93.542" y2="33.128"/>
		
			<line display="inline" fill="none" stroke="#454546" stroke-width="0.15" stroke-miterlimit="10" x1="93.542" y1="33.128" x2="93.805" y2="32.047"/>
		
			<line display="inline" fill="none" stroke="#454546" stroke-width="0.15" stroke-miterlimit="10" x1="93.805" y1="32.047" x2="94.198" y2="30.999"/>
		
			<line display="inline" fill="none" stroke="#454546" stroke-width="0.15" stroke-miterlimit="10" x1="94.198" y1="30.999" x2="94.689" y2="29.983"/>
		
			<line display="inline" fill="none" stroke="#454546" stroke-width="0.15" stroke-miterlimit="10" x1="94.689" y1="29.983" x2="95.311" y2="29.066"/>
		
			<line display="inline" fill="none" stroke="#454546" stroke-width="0.15" stroke-miterlimit="10" x1="95.311" y1="29.066" x2="95.999" y2="28.181"/>
		
			<line display="inline" fill="none" stroke="#454546" stroke-width="0.15" stroke-miterlimit="10" x1="95.999" y1="28.181" x2="96.818" y2="27.428"/>
		
			<line display="inline" fill="none" stroke="#454546" stroke-width="0.15" stroke-miterlimit="10" x1="96.818" y1="27.428" x2="97.703" y2="26.74"/>
		
			<line display="inline" fill="none" stroke="#454546" stroke-width="0.15" stroke-miterlimit="10" x1="97.703" y1="26.74" x2="98.686" y2="26.15"/>
		
			<line display="inline" fill="none" stroke="#454546" stroke-width="0.15" stroke-miterlimit="10" x1="98.686" y1="26.15" x2="99.701" y2="25.692"/>
		
			<line display="inline" fill="none" stroke="#454546" stroke-width="0.15" stroke-miterlimit="10" x1="99.701" y1="25.692" x2="100.782" y2="25.364"/>
		
			<line display="inline" fill="none" stroke="#454546" stroke-width="0.15" stroke-miterlimit="10" x1="100.782" y1="25.364" x2="101.864" y2="25.168"/>
		
			<line display="inline" fill="none" stroke="#454546" stroke-width="0.15" stroke-miterlimit="10" x1="101.864" y1="25.168" x2="102.977" y2="25.069"/>
		
			<line display="inline" fill="none" stroke="#454546" stroke-width="0.15" stroke-miterlimit="10" x1="109.988" y1="42.006" x2="109.169" y2="42.694"/>
		
			<line display="inline" fill="none" stroke="#454546" stroke-width="0.15" stroke-miterlimit="10" x1="109.169" y1="42.694" x2="108.285" y2="43.284"/>
		
			<line display="inline" fill="none" stroke="#454546" stroke-width="0.15" stroke-miterlimit="10" x1="108.285" y1="43.284" x2="107.334" y2="43.808"/>
		
			<line display="inline" fill="none" stroke="#454546" stroke-width="0.15" stroke-miterlimit="10" x1="107.334" y1="43.808" x2="106.352" y2="44.201"/>
		
			<line display="inline" fill="none" stroke="#454546" stroke-width="0.15" stroke-miterlimit="10" x1="106.352" y1="44.201" x2="105.336" y2="44.496"/>
		
			<line display="inline" fill="none" stroke="#454546" stroke-width="0.15" stroke-miterlimit="10" x1="105.336" y1="44.496" x2="104.288" y2="44.66"/>
		
			<line display="inline" fill="none" stroke="#454546" stroke-width="0.15" stroke-miterlimit="10" x1="104.288" y1="44.66" x2="103.207" y2="44.725"/>
		
			<line display="inline" fill="none" stroke="#454546" stroke-width="0.15" stroke-miterlimit="10" x1="103.207" y1="44.725" x2="102.126" y2="44.66"/>
		
			<line display="inline" fill="none" stroke="#454546" stroke-width="0.15" stroke-miterlimit="10" x1="102.126" y1="44.66" x2="101.077" y2="44.496"/>
		
			<line display="inline" fill="none" stroke="#454546" stroke-width="0.15" stroke-miterlimit="10" x1="101.077" y1="44.496" x2="100.062" y2="44.201"/>
		
			<line display="inline" fill="none" stroke="#454546" stroke-width="0.15" stroke-miterlimit="10" x1="100.062" y1="44.201" x2="99.046" y2="43.808"/>
		
			<line display="inline" fill="none" stroke="#454546" stroke-width="0.15" stroke-miterlimit="10" x1="99.046" y1="43.808" x2="98.129" y2="43.284"/>
		
			<line display="inline" fill="none" stroke="#454546" stroke-width="0.15" stroke-miterlimit="10" x1="98.129" y1="43.284" x2="97.244" y2="42.694"/>
		
			<line display="inline" fill="none" stroke="#454546" stroke-width="0.15" stroke-miterlimit="10" x1="97.244" y1="42.694" x2="96.425" y2="42.006"/>
		
			<line display="inline" fill="none" stroke="#454546" stroke-width="0.15" stroke-miterlimit="10" x1="103.207" y1="42.924" x2="103.207" y2="44.725"/>
		
			<line display="inline" fill="none" stroke="#454546" stroke-width="0.15" stroke-miterlimit="10" x1="99.505" y1="31.195" x2="97.736" y2="31.195"/>
		
			<line display="inline" fill="none" stroke="#454546" stroke-width="0.15" stroke-miterlimit="10" x1="95.901" y1="31.195" x2="94.099" y2="31.195"/>
		
			<line display="inline" fill="none" stroke="#454546" stroke-width="0.15" stroke-miterlimit="10" x1="94.099" y1="38.599" x2="95.868" y2="38.599"/>
		
			<line display="inline" fill="none" stroke="#454546" stroke-width="0.15" stroke-miterlimit="10" x1="97.703" y1="38.599" x2="99.505" y2="38.599"/>
		
			<line display="inline" fill="none" stroke="#454546" stroke-width="0.15" stroke-miterlimit="10" x1="99.505" y1="38.599" x2="100.226" y2="37.387"/>
		
			<line display="inline" fill="none" stroke="#454546" stroke-width="0.15" stroke-miterlimit="10" x1="100.979" y1="36.109" x2="101.732" y2="34.897"/>
		
			<line display="inline" fill="none" stroke="#454546" stroke-width="0.15" stroke-miterlimit="10" x1="101.732" y1="34.897" x2="101.012" y2="33.685"/>
		
			<line display="inline" fill="none" stroke="#454546" stroke-width="0.15" stroke-miterlimit="10" x1="100.258" y1="32.44" x2="99.505" y2="31.195"/>
		
			<line display="inline" fill="none" stroke="#454546" stroke-width="0.15" stroke-miterlimit="10" x1="105.172" y1="29.95" x2="104.779" y2="30.344"/>
		
			<line display="inline" fill="none" stroke="#454546" stroke-width="0.15" stroke-miterlimit="10" x1="104.779" y1="30.344" x2="104.648" y2="30.409"/>
		
			<line display="inline" fill="none" stroke="#454546" stroke-width="0.15" stroke-miterlimit="10" x1="103.927" y1="30.737" x2="103.764" y2="30.802"/>
		
			<line display="inline" fill="none" stroke="#454546" stroke-width="0.15" stroke-miterlimit="10" x1="103.764" y1="30.802" x2="103.207" y2="30.868"/>
		
			<line display="inline" fill="none" stroke="#454546" stroke-width="0.15" stroke-miterlimit="10" x1="103.207" y1="30.868" x2="102.65" y2="30.802"/>
		
			<line display="inline" fill="none" stroke="#454546" stroke-width="0.15" stroke-miterlimit="10" x1="102.65" y1="30.802" x2="102.519" y2="30.77"/>
		
			<line display="inline" fill="none" stroke="#454546" stroke-width="0.15" stroke-miterlimit="10" x1="101.798" y1="30.442" x2="101.634" y2="30.344"/>
		
			<line display="inline" fill="none" stroke="#454546" stroke-width="0.15" stroke-miterlimit="10" x1="101.634" y1="30.344" x2="101.241" y2="29.95"/>
		
			<line display="inline" fill="none" stroke="#454546" stroke-width="0.15" stroke-miterlimit="10" x1="104.19" y1="34.897" x2="102.224" y2="34.897"/>
		
			<line display="inline" fill="none" stroke="#454546" stroke-width="0.15" stroke-miterlimit="10" x1="103.207" y1="33.914" x2="103.207" y2="35.88"/>
		
			<line display="inline" fill="none" stroke="#454546" stroke-width="0.15" stroke-miterlimit="10" x1="105.172" y1="34.897" x2="108.252" y2="34.897"/>
		
			<line display="inline" fill="none" stroke="#454546" stroke-width="0.15" stroke-miterlimit="10" x1="109.66" y1="34.897" x2="110.971" y2="34.897"/>
		
			<line display="inline" fill="none" stroke="#454546" stroke-width="0.15" stroke-miterlimit="10" x1="112.38" y1="34.897" x2="115.492" y2="34.897"/>
		
			<line display="inline" fill="none" stroke="#454546" stroke-width="0.15" stroke-miterlimit="10" x1="103.207" y1="32.932" x2="103.207" y2="29.819"/>
		
			<line display="inline" fill="none" stroke="#454546" stroke-width="0.15" stroke-miterlimit="10" x1="103.207" y1="28.444" x2="103.207" y2="27.133"/>
		
			<line display="inline" fill="none" stroke="#454546" stroke-width="0.15" stroke-miterlimit="10" x1="103.207" y1="25.724" x2="103.207" y2="22.612"/>
		
			<line display="inline" fill="none" stroke="#454546" stroke-width="0.15" stroke-miterlimit="10" x1="101.241" y1="34.897" x2="98.162" y2="34.897"/>
		
			<line display="inline" fill="none" stroke="#454546" stroke-width="0.15" stroke-miterlimit="10" x1="96.753" y1="34.897" x2="95.443" y2="34.897"/>
		
			<line display="inline" fill="none" stroke="#454546" stroke-width="0.15" stroke-miterlimit="10" x1="94.034" y1="34.897" x2="90.922" y2="34.897"/>
		
			<line display="inline" fill="none" stroke="#454546" stroke-width="0.15" stroke-miterlimit="10" x1="103.207" y1="36.863" x2="103.207" y2="39.942"/>
		
			<line display="inline" fill="none" stroke="#454546" stroke-width="0.15" stroke-miterlimit="10" x1="103.207" y1="41.351" x2="103.207" y2="42.661"/>
		
			<line display="inline" fill="none" stroke="#454546" stroke-width="0.15" stroke-miterlimit="10" x1="103.207" y1="44.037" x2="103.207" y2="47.182"/>
		
			<line display="inline" fill="none" stroke="#454546" stroke-width="0.15" stroke-miterlimit="10" x1="108.612" y1="52.983" x2="110.578" y2="52.655"/>
		
			<line display="inline" fill="none" stroke="#454546" stroke-width="0.15" stroke-miterlimit="10" x1="110.578" y1="52.655" x2="108.612" y2="52.327"/>
		
			<line display="inline" fill="none" stroke="#454546" stroke-width="0.15" stroke-miterlimit="10" x1="108.612" y1="52.327" x2="108.612" y2="52.983"/>
		<polyline display="inline" fill="#454546" points="108.612,52.983 110.578,52.655 108.612,52.327 108.612,52.983 		"/>
		
			<line display="inline" fill="none" stroke="#454546" stroke-width="0.15" stroke-miterlimit="10" x1="97.801" y1="52.983" x2="95.836" y2="52.655"/>
		
			<line display="inline" fill="none" stroke="#454546" stroke-width="0.15" stroke-miterlimit="10" x1="95.836" y1="52.655" x2="97.801" y2="52.327"/>
		
			<line display="inline" fill="none" stroke="#454546" stroke-width="0.15" stroke-miterlimit="10" x1="97.801" y1="52.327" x2="97.801" y2="52.983"/>
		<polyline display="inline" fill="#454546" points="97.801,52.983 95.836,52.655 97.801,52.327 97.801,52.983 		"/>
		
			<line display="inline" fill="none" stroke="#454546" stroke-width="0.15" stroke-miterlimit="10" x1="110.578" y1="32.899" x2="110.578" y2="54.899"/>
		
			<line display="inline" fill="none" stroke="#454546" stroke-width="0.15" stroke-miterlimit="10" x1="95.836" y1="32.899" x2="95.836" y2="54.899"/>
		<g display="inline">
			<path fill="#454546" d="M100.014,53.638v-0.282h0.235v0.282H100.014z"/>
			<path fill="#454546" d="M101.289,52.381c0.097,0,0.185-0.006,0.264-0.018s0.147-0.034,0.204-0.067s0.101-0.078,0.133-0.134
				s0.048-0.127,0.048-0.215c0-0.07-0.013-0.131-0.039-0.181c-0.026-0.051-0.061-0.092-0.104-0.124s-0.095-0.056-0.154-0.07
				s-0.121-0.022-0.185-0.022c-0.073,0-0.139,0.012-0.198,0.035s-0.11,0.058-0.153,0.102c-0.043,0.043-0.076,0.095-0.1,0.153
				s-0.035,0.124-0.035,0.194h-0.206c0-0.103,0.018-0.195,0.053-0.277c0.036-0.082,0.091-0.159,0.166-0.229
				c0.071-0.064,0.15-0.105,0.239-0.123c0.089-0.019,0.181-0.027,0.275-0.027c0.09,0,0.174,0.011,0.252,0.033
				s0.146,0.057,0.204,0.103s0.104,0.104,0.138,0.175c0.034,0.07,0.051,0.153,0.051,0.247c0,0.118-0.026,0.22-0.079,0.305
				c-0.053,0.086-0.133,0.152-0.243,0.199c0.081,0.025,0.148,0.059,0.201,0.101c0.053,0.042,0.094,0.088,0.124,0.138
				c0.03,0.051,0.05,0.104,0.061,0.159s0.016,0.109,0.016,0.16c0,0.095-0.016,0.182-0.048,0.263
				c-0.032,0.082-0.08,0.153-0.142,0.216c-0.062,0.062-0.139,0.111-0.229,0.148c-0.091,0.038-0.195,0.058-0.31,0.06
				c-0.131,0-0.245-0.012-0.341-0.035s-0.177-0.062-0.241-0.117c-0.064-0.055-0.114-0.126-0.151-0.215s-0.061-0.199-0.074-0.332
				h0.206c0,0.173,0.052,0.305,0.156,0.393c0.104,0.089,0.239,0.134,0.407,0.134c0.081,0,0.157-0.015,0.228-0.042
				s0.131-0.065,0.182-0.112c0.05-0.047,0.089-0.102,0.116-0.164c0.026-0.062,0.039-0.126,0.037-0.192
				c-0.004-0.092-0.025-0.168-0.064-0.229c-0.039-0.062-0.091-0.109-0.156-0.145c-0.065-0.035-0.142-0.059-0.229-0.07
				s-0.181-0.015-0.28-0.009L101.289,52.381L101.289,52.381z"/>
			<path fill="#454546" d="M102.555,51.399h1.443v0.192c-0.163,0.184-0.301,0.372-0.415,0.565c-0.113,0.194-0.207,0.382-0.279,0.564
				c-0.073,0.184-0.127,0.354-0.163,0.512c-0.035,0.158-0.056,0.293-0.062,0.404h-0.225c0.011-0.162,0.043-0.335,0.098-0.518
				c0.055-0.184,0.123-0.364,0.204-0.544s0.173-0.354,0.276-0.521c0.103-0.168,0.209-0.317,0.318-0.45h-1.195
				C102.555,51.603,102.555,51.399,102.555,51.399z"/>
			<path fill="#454546" d="M105.557,51.932c-0.023-0.115-0.071-0.208-0.142-0.277s-0.167-0.104-0.289-0.104
				c-0.139,0-0.249,0.033-0.33,0.1c-0.08,0.066-0.142,0.15-0.185,0.252s-0.072,0.212-0.087,0.331
				c-0.015,0.12-0.027,0.233-0.035,0.341c0.032-0.043,0.066-0.086,0.101-0.129c0.036-0.043,0.076-0.08,0.121-0.113
				s0.098-0.061,0.158-0.08c0.06-0.021,0.131-0.031,0.215-0.031c0.229,0,0.407,0.065,0.532,0.194
				c0.125,0.13,0.188,0.308,0.188,0.534c0,0.229-0.063,0.408-0.19,0.539c-0.126,0.13-0.305,0.195-0.537,0.195
				c-0.113,0-0.218-0.019-0.315-0.056c-0.096-0.038-0.18-0.1-0.25-0.185c-0.071-0.086-0.126-0.197-0.167-0.336
				c-0.041-0.138-0.061-0.306-0.061-0.505c0-0.135,0.012-0.274,0.035-0.418c0.023-0.145,0.066-0.276,0.127-0.396
				s0.145-0.218,0.25-0.295c0.106-0.077,0.243-0.115,0.41-0.115c0.18,0,0.33,0.047,0.45,0.141c0.12,0.094,0.19,0.232,0.212,0.414
				L105.557,51.932L105.557,51.932z M105.078,52.394c-0.079,0-0.15,0.015-0.213,0.045c-0.063,0.029-0.117,0.07-0.161,0.121
				c-0.044,0.052-0.078,0.111-0.102,0.179c-0.023,0.067-0.035,0.14-0.035,0.216c0,0.064,0.009,0.129,0.027,0.194
				s0.048,0.125,0.09,0.178c0.042,0.054,0.095,0.098,0.159,0.132s0.144,0.052,0.238,0.052c0.096,0,0.177-0.017,0.243-0.05
				c0.065-0.033,0.118-0.077,0.159-0.132s0.07-0.115,0.088-0.183c0.019-0.067,0.027-0.136,0.027-0.204
				c0-0.175-0.042-0.311-0.127-0.405C105.387,52.44,105.255,52.394,105.078,52.394z"/>
		</g>
		
			<line display="inline" fill="none" stroke="#454546" stroke-width="0.15" stroke-miterlimit="10" x1="110.578" y1="52.655" x2="106.417" y2="52.655"/>
		
			<line display="inline" fill="none" stroke="#454546" stroke-width="0.15" stroke-miterlimit="10" x1="99.996" y1="52.655" x2="95.836" y2="52.655"/>
		
			<line display="inline" fill="none" stroke="#454546" stroke-width="0.15" stroke-miterlimit="10" x1="110.545" y1="27.854" x2="109.202" y2="29.328"/>
		
			<line display="inline" fill="none" stroke="#454546" stroke-width="0.15" stroke-miterlimit="10" x1="109.202" y1="29.328" x2="109.988" y2="27.526"/>
		
			<line display="inline" fill="none" stroke="#454546" stroke-width="0.15" stroke-miterlimit="10" x1="109.988" y1="27.526" x2="110.545" y2="27.854"/>
		<polyline display="inline" fill="none" stroke="#454546" stroke-width="0.15" stroke-miterlimit="10" points="110.545,27.854 
			109.202,29.328 109.988,27.526 110.545,27.854 		"/>
		
			<line display="inline" fill="none" stroke="#454546" stroke-width="0.15" stroke-miterlimit="10" x1="112.15" y1="24.774" x2="117.15" y2="24.774"/>
		<g display="inline">
			<path fill="#454546" d="M118.263,24.708v1.049l-0.219-0.003v-2.306h0.906c0.255,0,0.45,0.047,0.585,0.143s0.203,0.25,0.203,0.463
				c0,0.146-0.03,0.261-0.088,0.347c-0.059,0.085-0.155,0.158-0.288,0.218c0.068,0.023,0.122,0.058,0.161,0.103
				s0.067,0.096,0.086,0.154c0.02,0.058,0.032,0.119,0.037,0.183s0.009,0.126,0.011,0.186c0.002,0.088,0.006,0.16,0.011,0.218
				c0.005,0.058,0.012,0.104,0.02,0.141c0.007,0.036,0.017,0.064,0.027,0.085c0.01,0.02,0.023,0.036,0.038,0.046v0.019l-0.241,0.003
				c-0.023-0.039-0.04-0.092-0.05-0.16c-0.01-0.069-0.017-0.14-0.022-0.215c-0.005-0.075-0.01-0.147-0.013-0.218
				c-0.003-0.071-0.009-0.128-0.018-0.173c-0.013-0.062-0.034-0.112-0.062-0.149c-0.029-0.038-0.064-0.066-0.104-0.085
				c-0.041-0.02-0.086-0.032-0.137-0.039s-0.102-0.01-0.156-0.01H118.263z M118.944,24.522c0.082,0,0.157-0.008,0.227-0.025
				s0.13-0.044,0.182-0.082c0.051-0.037,0.092-0.085,0.122-0.143s0.045-0.127,0.045-0.208c0-0.085-0.016-0.156-0.046-0.212
				c-0.031-0.056-0.073-0.099-0.125-0.131c-0.053-0.032-0.112-0.055-0.18-0.067c-0.067-0.013-0.137-0.019-0.21-0.019h-0.694v0.888
				h0.679V24.522z"/>
			<path fill="#454546" d="M121.152,25.757v-0.282h0.234v0.282H121.152z"/>
			<path fill="#454546" d="M122.611,23.496c0.111,0,0.207,0.017,0.289,0.05c0.081,0.033,0.15,0.079,0.207,0.136
				s0.104,0.125,0.139,0.202s0.062,0.159,0.082,0.245c0.019,0.087,0.031,0.176,0.038,0.268s0.01,0.182,0.01,0.27
				c0,0.149-0.011,0.293-0.032,0.43s-0.061,0.258-0.117,0.362c-0.057,0.105-0.135,0.188-0.232,0.25
				c-0.1,0.062-0.227,0.093-0.383,0.093s-0.285-0.031-0.385-0.093s-0.178-0.146-0.234-0.251s-0.096-0.229-0.117-0.369
				c-0.021-0.14-0.031-0.288-0.031-0.444c0-0.144,0.009-0.283,0.028-0.42s0.056-0.259,0.11-0.367s0.133-0.195,0.233-0.261
				S122.448,23.496,122.611,23.496z M123.17,24.645c0-0.122-0.007-0.241-0.021-0.358c-0.015-0.116-0.042-0.221-0.082-0.312
				s-0.099-0.166-0.172-0.221s-0.171-0.083-0.291-0.083c-0.113,0-0.206,0.028-0.278,0.085c-0.071,0.057-0.127,0.132-0.168,0.226
				s-0.069,0.201-0.086,0.321c-0.016,0.12-0.023,0.242-0.023,0.366c0,0.146,0.009,0.277,0.027,0.396s0.049,0.22,0.092,0.303
				s0.1,0.148,0.172,0.194c0.071,0.046,0.162,0.069,0.271,0.069c0.122,0,0.22-0.03,0.294-0.09c0.073-0.06,0.13-0.137,0.169-0.231
				c0.038-0.094,0.064-0.2,0.076-0.317C123.164,24.873,123.17,24.758,123.17,24.645z"/>
			<path fill="#454546" d="M123.694,23.519h1.443v0.192c-0.163,0.184-0.302,0.373-0.415,0.566s-0.207,0.381-0.279,0.564
				c-0.073,0.183-0.127,0.353-0.162,0.511c-0.036,0.158-0.057,0.293-0.063,0.404h-0.225c0.011-0.163,0.044-0.335,0.099-0.518
				c0.054-0.183,0.122-0.364,0.203-0.543c0.082-0.18,0.174-0.354,0.276-0.521c0.104-0.167,0.209-0.318,0.318-0.45h-1.195V23.519z"/>
			<path fill="#454546" d="M125.828,24.542c-0.057-0.034-0.104-0.067-0.144-0.098s-0.072-0.064-0.098-0.101
				c-0.026-0.036-0.045-0.077-0.057-0.124c-0.012-0.046-0.018-0.103-0.018-0.171c0-0.077,0.018-0.149,0.052-0.218
				c0.034-0.068,0.08-0.127,0.138-0.178s0.126-0.089,0.204-0.117s0.162-0.041,0.252-0.039c0.086,0,0.17,0.011,0.253,0.032
				c0.082,0.021,0.155,0.055,0.22,0.1c0.064,0.044,0.116,0.102,0.154,0.171c0.039,0.069,0.058,0.152,0.058,0.249
				c0,0.118-0.023,0.218-0.072,0.301c-0.048,0.083-0.127,0.152-0.236,0.206c0.125,0.045,0.223,0.117,0.294,0.215
				c0.072,0.098,0.108,0.214,0.108,0.346c0,0.111-0.02,0.21-0.057,0.295s-0.091,0.157-0.16,0.215
				c-0.07,0.058-0.154,0.102-0.253,0.131s-0.208,0.045-0.327,0.045c-0.082,0-0.165-0.014-0.249-0.042
				c-0.085-0.028-0.161-0.07-0.229-0.125c-0.067-0.055-0.123-0.125-0.165-0.208c-0.043-0.083-0.064-0.181-0.064-0.292
				c0-0.135,0.033-0.255,0.101-0.361C125.601,24.668,125.699,24.591,125.828,24.542z M126.187,24.651
				c-0.079,0-0.152,0.01-0.219,0.029s-0.124,0.049-0.173,0.088c-0.05,0.04-0.088,0.09-0.116,0.15
				c-0.027,0.061-0.042,0.133-0.042,0.217c0,0.07,0.014,0.136,0.04,0.195c0.027,0.06,0.064,0.112,0.113,0.156
				c0.048,0.044,0.106,0.079,0.177,0.104c0.069,0.026,0.146,0.039,0.232,0.039c0.075,0,0.145-0.012,0.209-0.037
				c0.064-0.025,0.12-0.06,0.169-0.104c0.048-0.045,0.086-0.098,0.112-0.16s0.04-0.13,0.04-0.206c0-0.079-0.014-0.148-0.042-0.207
				c-0.027-0.059-0.066-0.108-0.115-0.147c-0.05-0.04-0.107-0.069-0.174-0.088S126.262,24.651,126.187,24.651z M126.177,23.669
				c-0.064,0-0.124,0.008-0.18,0.025c-0.056,0.018-0.104,0.043-0.146,0.077s-0.074,0.077-0.098,0.128s-0.035,0.11-0.035,0.176
				c0,0.071,0.013,0.131,0.04,0.181c0.026,0.05,0.062,0.091,0.107,0.124s0.097,0.056,0.154,0.072s0.118,0.024,0.18,0.024
				c0.062,0,0.12-0.008,0.174-0.024s0.1-0.042,0.138-0.079c0.039-0.036,0.069-0.083,0.092-0.138
				c0.022-0.056,0.034-0.124,0.034-0.206c0-0.115-0.038-0.205-0.112-0.268C126.45,23.701,126.334,23.669,126.177,23.669z"/>
		</g>
		
			<line display="inline" fill="none" stroke="#454546" stroke-width="0.15" stroke-miterlimit="10" x1="109.202" y1="29.328" x2="112.15" y2="24.774"/>
		
			<line display="inline" fill="none" stroke="#454546" stroke-width="0.15" stroke-miterlimit="10" x1="84.713" y1="40.958" x2="85.04" y2="42.924"/>
		
			<line display="inline" fill="none" stroke="#454546" stroke-width="0.15" stroke-miterlimit="10" x1="85.04" y1="42.924" x2="85.368" y2="40.958"/>
		
			<line display="inline" fill="none" stroke="#454546" stroke-width="0.15" stroke-miterlimit="10" x1="85.368" y1="40.958" x2="84.713" y2="40.958"/>
		<polyline display="inline" fill="#454546" points="84.713,40.958 85.04,42.924 85.368,40.958 84.713,40.958 		"/>
		
			<line display="inline" fill="none" stroke="#454546" stroke-width="0.15" stroke-miterlimit="10" x1="84.713" y1="30.802" x2="85.04" y2="28.837"/>
		
			<line display="inline" fill="none" stroke="#454546" stroke-width="0.15" stroke-miterlimit="10" x1="85.04" y1="28.837" x2="85.368" y2="30.802"/>
		
			<line display="inline" fill="none" stroke="#454546" stroke-width="0.15" stroke-miterlimit="10" x1="85.368" y1="30.802" x2="84.713" y2="30.802"/>
		<polyline display="inline" fill="#454546" points="84.713,30.802 85.04,28.837 85.368,30.802 84.713,30.802 		"/>
		
			<line display="inline" fill="none" stroke="#454546" stroke-width="0.15" stroke-miterlimit="10" x1="102.224" y1="42.924" x2="83.224" y2="42.924"/>
		
			<line display="inline" fill="none" stroke="#454546" stroke-width="0.15" stroke-miterlimit="10" x1="97.9" y1="28.837" x2="82.9" y2="28.837"/>
		<g display="inline">
			<path fill="#454546" d="M81.847,36.863v-0.282h0.235v0.282H81.847z"/>
			<path fill="#454546" d="M83.123,35.606c0.097,0,0.185-0.006,0.264-0.018s0.147-0.034,0.204-0.067s0.101-0.078,0.133-0.133
				c0.032-0.055,0.048-0.127,0.048-0.215c0-0.07-0.013-0.131-0.039-0.181s-0.061-0.091-0.104-0.124
				c-0.044-0.032-0.095-0.055-0.154-0.07s-0.121-0.022-0.185-0.022c-0.073,0-0.139,0.012-0.198,0.035s-0.11,0.057-0.153,0.101
				s-0.076,0.095-0.1,0.154c-0.023,0.059-0.035,0.124-0.035,0.194h-0.206c0-0.103,0.018-0.195,0.053-0.277
				c0.036-0.083,0.091-0.159,0.166-0.229c0.071-0.064,0.15-0.105,0.239-0.124s0.181-0.027,0.275-0.027
				c0.09,0,0.174,0.011,0.252,0.034s0.146,0.057,0.204,0.103s0.104,0.104,0.138,0.175c0.034,0.071,0.051,0.153,0.051,0.247
				c0,0.118-0.026,0.219-0.079,0.305c-0.053,0.085-0.133,0.152-0.243,0.199c0.081,0.026,0.148,0.06,0.201,0.101
				c0.053,0.042,0.094,0.088,0.124,0.138s0.05,0.103,0.061,0.159s0.016,0.108,0.016,0.16c0,0.095-0.016,0.183-0.048,0.263
				c-0.032,0.082-0.08,0.153-0.142,0.215s-0.139,0.112-0.229,0.149c-0.091,0.038-0.195,0.058-0.31,0.06
				c-0.131,0-0.245-0.012-0.341-0.035s-0.177-0.062-0.241-0.117c-0.064-0.055-0.114-0.126-0.151-0.215s-0.061-0.199-0.074-0.332
				h0.206c0,0.174,0.052,0.305,0.156,0.393c0.104,0.089,0.239,0.133,0.407,0.133c0.081,0,0.157-0.014,0.228-0.041
				s0.131-0.065,0.182-0.112c0.05-0.047,0.089-0.102,0.116-0.163c0.026-0.062,0.039-0.127,0.037-0.193
				c-0.004-0.092-0.025-0.168-0.064-0.229s-0.091-0.109-0.156-0.144c-0.065-0.036-0.142-0.059-0.229-0.071s-0.181-0.014-0.28-0.008
				L83.123,35.606L83.123,35.606z"/>
			<path fill="#454546" d="M84.518,36.276c0.021,0.153,0.083,0.269,0.185,0.345s0.227,0.113,0.375,0.113
				c0.083,0,0.159-0.014,0.227-0.045c0.067-0.029,0.125-0.07,0.172-0.123s0.083-0.113,0.107-0.183s0.037-0.146,0.037-0.226
				c0-0.084-0.014-0.161-0.041-0.231c-0.026-0.071-0.064-0.131-0.112-0.183s-0.107-0.091-0.177-0.119
				c-0.069-0.028-0.147-0.042-0.233-0.042c-0.103,0-0.195,0.019-0.276,0.056c-0.082,0.038-0.153,0.097-0.215,0.178l-0.17-0.022
				l0.184-1.171h1.125v0.173h-0.951l-0.142,0.76c0.045-0.028,0.086-0.051,0.124-0.071c0.037-0.019,0.075-0.035,0.114-0.046
				s0.079-0.02,0.121-0.024c0.042-0.004,0.088-0.007,0.14-0.007c0.103,0,0.198,0.018,0.286,0.052s0.164,0.083,0.228,0.147
				c0.064,0.064,0.114,0.143,0.149,0.235c0.036,0.093,0.053,0.197,0.053,0.313c0,0.119-0.02,0.226-0.06,0.318
				c-0.04,0.094-0.093,0.172-0.159,0.236s-0.143,0.112-0.229,0.146s-0.176,0.05-0.269,0.05c-0.107,0-0.207-0.011-0.3-0.032
				s-0.175-0.058-0.246-0.107c-0.071-0.05-0.128-0.115-0.172-0.195c-0.044-0.081-0.07-0.179-0.079-0.297h0.204L84.518,36.276
				L84.518,36.276z"/>
			<path fill="#454546" d="M86.523,35.648c-0.056-0.034-0.104-0.067-0.143-0.098c-0.04-0.031-0.072-0.064-0.098-0.101
				c-0.025-0.036-0.044-0.077-0.056-0.124c-0.012-0.046-0.018-0.103-0.018-0.171c0-0.077,0.017-0.149,0.051-0.218
				c0.034-0.068,0.081-0.127,0.138-0.178c0.058-0.05,0.126-0.089,0.204-0.117s0.163-0.041,0.252-0.039
				c0.085,0,0.169,0.011,0.252,0.032s0.156,0.055,0.22,0.1c0.064,0.044,0.116,0.102,0.154,0.171s0.058,0.152,0.058,0.249
				c0,0.118-0.024,0.218-0.073,0.301c-0.048,0.083-0.126,0.152-0.236,0.206c0.124,0.045,0.222,0.117,0.294,0.215
				s0.107,0.214,0.107,0.346c0,0.111-0.019,0.21-0.056,0.296c-0.038,0.085-0.091,0.156-0.161,0.215
				c-0.069,0.057-0.154,0.102-0.252,0.131c-0.099,0.03-0.208,0.045-0.328,0.045c-0.081,0-0.164-0.014-0.249-0.042
				c-0.084-0.027-0.161-0.069-0.228-0.125s-0.123-0.125-0.166-0.208c-0.043-0.084-0.064-0.182-0.064-0.292
				c0-0.135,0.034-0.255,0.101-0.361S86.394,35.697,86.523,35.648z M86.882,35.757c-0.079,0-0.152,0.01-0.218,0.029
				s-0.125,0.049-0.174,0.088s-0.088,0.09-0.116,0.15c-0.028,0.062-0.042,0.134-0.042,0.217c0,0.07,0.013,0.136,0.04,0.195
				s0.064,0.112,0.112,0.155c0.048,0.045,0.107,0.079,0.177,0.104c0.07,0.026,0.147,0.038,0.233,0.038
				c0.075,0,0.145-0.012,0.209-0.036s0.121-0.06,0.169-0.104c0.048-0.045,0.085-0.098,0.112-0.16s0.04-0.131,0.04-0.205
				c0-0.08-0.014-0.148-0.042-0.207c-0.028-0.059-0.066-0.108-0.116-0.147s-0.107-0.069-0.174-0.088S86.958,35.757,86.882,35.757z
				 M86.873,34.775c-0.064,0-0.124,0.008-0.18,0.025c-0.056,0.018-0.104,0.043-0.146,0.077c-0.042,0.034-0.074,0.077-0.098,0.128
				s-0.036,0.11-0.036,0.176c0,0.071,0.014,0.131,0.041,0.181c0.026,0.05,0.062,0.091,0.107,0.124s0.096,0.056,0.154,0.072
				s0.118,0.024,0.18,0.024c0.062,0,0.12-0.008,0.174-0.024c0.053-0.016,0.1-0.042,0.138-0.079s0.069-0.083,0.091-0.138
				c0.022-0.056,0.034-0.124,0.034-0.206c0-0.115-0.037-0.205-0.112-0.268S87.029,34.775,86.873,34.775z"/>
		</g>
		
			<line display="inline" fill="none" stroke="#454546" stroke-width="0.15" stroke-miterlimit="10" x1="85.04" y1="42.924" x2="85.04" y2="37.551"/>
		
			<line display="inline" fill="none" stroke="#454546" stroke-width="0.15" stroke-miterlimit="10" x1="85.04" y1="34.209" x2="85.04" y2="28.837"/>
		
			<line display="inline" fill="none" stroke="#454546" stroke-width="0.15" stroke-miterlimit="10" x1="102.715" y1="28.771" x2="102.42" y2="30.737"/>
		
			<line display="inline" fill="none" stroke="#454546" stroke-width="0.15" stroke-miterlimit="10" x1="102.42" y1="30.737" x2="103.338" y2="28.968"/>
		
			<line display="inline" fill="none" stroke="#454546" stroke-width="0.15" stroke-miterlimit="10" x1="103.338" y1="28.968" x2="102.715" y2="28.771"/>
		<polyline display="inline" fill="none" stroke="#454546" stroke-width="0.15" stroke-miterlimit="10" points="102.715,28.771 
			102.42,30.737 103.338,28.968 102.715,28.771 		"/>
		
			<line display="inline" fill="none" stroke="#454546" stroke-width="0.15" stroke-miterlimit="10" x1="105.565" y1="20.876" x2="105.565" y2="20.876"/>
		<g display="inline">
			<path fill="#454545" d="M111.679,20.81v1.049l-0.219-0.003V19.55h0.906c0.255,0,0.45,0.047,0.585,0.143s0.203,0.25,0.203,0.463
				c0,0.146-0.03,0.261-0.088,0.347c-0.059,0.085-0.155,0.158-0.288,0.218c0.068,0.023,0.122,0.058,0.161,0.103
				s0.067,0.096,0.086,0.154c0.02,0.058,0.032,0.119,0.037,0.183s0.009,0.126,0.011,0.186c0.002,0.088,0.006,0.16,0.011,0.218
				c0.005,0.058,0.012,0.104,0.02,0.141c0.007,0.036,0.017,0.064,0.027,0.085c0.01,0.02,0.023,0.036,0.038,0.046v0.019l-0.241,0.003
				c-0.023-0.039-0.04-0.092-0.05-0.16c-0.01-0.069-0.017-0.14-0.022-0.215c-0.005-0.075-0.01-0.147-0.013-0.218
				c-0.003-0.071-0.009-0.128-0.018-0.173c-0.013-0.062-0.034-0.112-0.062-0.149c-0.029-0.038-0.064-0.066-0.104-0.085
				c-0.041-0.02-0.086-0.032-0.137-0.039s-0.102-0.01-0.156-0.01H111.679z M112.36,20.624c0.082,0,0.157-0.008,0.227-0.025
				s0.13-0.044,0.182-0.082c0.051-0.037,0.092-0.085,0.122-0.143s0.045-0.127,0.045-0.208c0-0.085-0.016-0.156-0.046-0.212
				c-0.031-0.056-0.073-0.099-0.125-0.131c-0.053-0.032-0.112-0.055-0.18-0.067c-0.067-0.013-0.137-0.019-0.21-0.019h-0.694v0.888
				h0.679V20.624z"/>
			<path fill="#454545" d="M114.568,21.859v-0.282h0.235v0.282H114.568z"/>
			<path fill="#454545" d="M116.026,19.598c0.112,0,0.208,0.017,0.29,0.05c0.081,0.033,0.15,0.079,0.207,0.136
				s0.103,0.125,0.138,0.202c0.036,0.077,0.063,0.159,0.082,0.245c0.019,0.087,0.032,0.176,0.039,0.268s0.01,0.182,0.01,0.27
				c0,0.149-0.011,0.293-0.032,0.43s-0.061,0.258-0.117,0.362c-0.057,0.105-0.135,0.188-0.233,0.25
				c-0.099,0.062-0.226,0.093-0.383,0.093c-0.156,0-0.284-0.031-0.384-0.093c-0.1-0.062-0.178-0.146-0.234-0.251
				c-0.057-0.106-0.096-0.229-0.118-0.369c-0.021-0.14-0.032-0.288-0.032-0.444c0-0.144,0.009-0.283,0.029-0.42
				c0.019-0.137,0.056-0.259,0.111-0.367s0.132-0.195,0.233-0.261S115.864,19.598,116.026,19.598z M116.586,20.746
				c0-0.122-0.007-0.241-0.021-0.358c-0.014-0.116-0.042-0.221-0.082-0.312s-0.098-0.166-0.172-0.221s-0.171-0.083-0.291-0.083
				c-0.113,0-0.206,0.028-0.278,0.085s-0.128,0.132-0.168,0.226c-0.041,0.094-0.069,0.201-0.085,0.321s-0.024,0.242-0.024,0.366
				c0,0.146,0.009,0.277,0.027,0.396s0.049,0.22,0.091,0.303c0.043,0.083,0.1,0.148,0.172,0.194s0.163,0.069,0.271,0.069
				c0.123,0,0.22-0.03,0.294-0.09s0.13-0.137,0.168-0.231c0.039-0.094,0.064-0.2,0.077-0.317S116.586,20.859,116.586,20.746z"/>
			<path fill="#454545" d="M118.324,20.153c-0.023-0.116-0.071-0.208-0.142-0.278c-0.071-0.069-0.167-0.104-0.289-0.104
				c-0.139,0-0.249,0.033-0.33,0.1c-0.08,0.066-0.142,0.15-0.185,0.251s-0.072,0.212-0.087,0.332s-0.027,0.233-0.035,0.34
				c0.032-0.042,0.066-0.085,0.101-0.128c0.036-0.043,0.076-0.081,0.121-0.114s0.098-0.06,0.158-0.08s0.131-0.03,0.215-0.03
				c0.229,0,0.407,0.064,0.532,0.194c0.125,0.129,0.188,0.308,0.188,0.534c0,0.229-0.063,0.408-0.19,0.539s-0.305,0.196-0.537,0.196
				c-0.113,0-0.218-0.019-0.315-0.056c-0.096-0.038-0.18-0.099-0.25-0.185c-0.071-0.085-0.126-0.197-0.167-0.335
				c-0.041-0.138-0.061-0.306-0.061-0.505c0-0.135,0.012-0.274,0.035-0.418s0.066-0.276,0.127-0.396s0.145-0.218,0.25-0.295
				c0.106-0.077,0.243-0.116,0.41-0.116c0.18,0,0.33,0.047,0.45,0.141c0.12,0.094,0.19,0.232,0.212,0.414h-0.211
				C118.324,20.154,118.324,20.153,118.324,20.153z M117.845,20.614c-0.079,0-0.15,0.015-0.213,0.045
				c-0.063,0.03-0.117,0.071-0.161,0.122c-0.044,0.051-0.078,0.111-0.102,0.178c-0.023,0.067-0.035,0.139-0.035,0.216
				c0,0.064,0.009,0.129,0.027,0.194s0.048,0.125,0.09,0.178s0.095,0.097,0.159,0.131s0.144,0.051,0.238,0.051
				c0.096,0,0.177-0.017,0.243-0.05c0.065-0.033,0.118-0.077,0.159-0.131c0.041-0.055,0.07-0.115,0.088-0.183
				c0.019-0.067,0.027-0.135,0.027-0.204c0-0.175-0.042-0.311-0.127-0.406C118.154,20.662,118.023,20.614,117.845,20.614z"/>
			<path fill="#454545" d="M119.025,21.272c0.021,0.154,0.083,0.269,0.185,0.345s0.227,0.114,0.375,0.114
				c0.083,0,0.159-0.015,0.227-0.045c0.067-0.03,0.125-0.071,0.172-0.124c0.047-0.052,0.083-0.113,0.107-0.183
				s0.037-0.145,0.037-0.226c0-0.083-0.014-0.16-0.041-0.231c-0.026-0.071-0.064-0.131-0.112-0.183s-0.107-0.091-0.177-0.119
				c-0.069-0.028-0.147-0.042-0.233-0.042c-0.103,0-0.195,0.019-0.276,0.056c-0.082,0.038-0.153,0.097-0.215,0.178l-0.17-0.022
				l0.184-1.171h1.125v0.173h-0.951l-0.142,0.76c0.045-0.028,0.086-0.051,0.124-0.071c0.037-0.019,0.075-0.035,0.114-0.046
				s0.079-0.02,0.121-0.024s0.088-0.007,0.14-0.007c0.103,0,0.198,0.018,0.286,0.052s0.164,0.083,0.228,0.147
				c0.064,0.064,0.114,0.143,0.149,0.235c0.036,0.093,0.053,0.197,0.053,0.313c0,0.12-0.02,0.226-0.06,0.319
				s-0.093,0.172-0.159,0.236c-0.066,0.064-0.143,0.113-0.229,0.146s-0.176,0.05-0.269,0.05c-0.107,0-0.207-0.011-0.3-0.032
				s-0.175-0.057-0.246-0.107c-0.071-0.05-0.128-0.115-0.172-0.195c-0.044-0.081-0.07-0.179-0.079-0.297h0.204L119.025,21.272
				L119.025,21.272z"/>
		</g>
		
			<line display="inline" fill="none" stroke="#454546" stroke-width="0.15" stroke-miterlimit="10" x1="105.565" y1="20.876" x2="102.42" y2="30.737"/>
		
			<line display="inline" fill="none" stroke="#000000" stroke-width="0.12" stroke-linecap="round" stroke-linejoin="round" stroke-miterlimit="10" x1="100.565" y1="34.876" x2="105.565" y2="34.876"/>
		
			<line display="inline" fill="none" stroke="#454545" stroke-width="0.12" stroke-linecap="round" stroke-linejoin="round" stroke-miterlimit="10" x1="105.565" y1="20.876" x2="110.565" y2="20.876"/>
	</g>
	<g>
		<path fill="#663300" d="M79.794,20c0.09-0.885,0.126-3.268,0.126-4.477v-4.116c0-1.191-0.036-3.592-0.126-4.477
			c0.74,0,2.888-0.018,3.502-0.09c-0.055,0.542-0.072,2.021-0.072,2.744v7.744c0,0.704,0.018,2.148,0.072,2.672H79.794z"/>
		<path fill="#663300" d="M92.211,20c0.108-0.866,0.126-2.238,0.126-3.412v-2.166c0-1.173-0.252-1.823-1.173-1.823
			c-1.065,0-1.932,0.976-1.932,1.914v3.43c0,0.704,0.019,1.534,0.072,2.058h-3.483c0.071-0.866,0.126-2.238,0.126-3.412v-2.852
			c0-1.155-0.055-2.401-0.126-3.268c0.703,0,2.653-0.234,3.249-0.289l0.145,2.058c0.794-1.354,2.238-2.184,3.52-2.184
			c1.968,0,2.906,1.3,2.906,3.43v4.459c0,0.704,0.036,1.534,0.072,2.058H92.211z"/>
		<path fill="#663300" d="M105.095,10.704l-0.668,2.256c-0.686-0.397-1.552-0.686-2.364-0.686c-0.776,0-1.228,0.271-1.228,0.794
			c0,1.173,4.711,0.938,4.711,4.008c0,2.13-1.751,3.285-4.224,3.285c-1.119,0-2.834-0.325-3.683-0.795l0.108-2.509
			c0.885,0.523,2.293,1.083,3.521,1.083c0.812,0,1.264-0.325,1.264-0.776c0-1.336-4.693-0.975-4.693-4.151
			c0-1.769,1.479-3.159,3.953-3.159C103.092,10.054,104.355,10.361,105.095,10.704z"/>
		<path fill="#663300" d="M109.118,8.665c-1.047,0-1.841-0.686-1.841-1.643c0-1.047,0.849-1.769,1.896-1.769
			c1.011,0,1.841,0.704,1.841,1.661C111.013,7.96,110.166,8.665,109.118,8.665z M107.277,20c0.09-0.866,0.145-2.112,0.145-3.285
			v-2.961c0-1.155-0.055-2.527-0.145-3.393c0.722,0,2.906-0.126,3.502-0.181c-0.054,0.523-0.072,1.444-0.072,2.148v5.723
			c0,0.704,0.019,1.426,0.072,1.949H107.277z"/>
		<path fill="#663300" d="M119.496,10.668l-0.018-1.697c0-1.173,0-2.329-0.091-3.195c0.722-0.054,2.87-0.253,3.466-0.379
			c-0.054,0.523-0.072,1.517-0.072,2.185v9.098c0,1.155,0.036,2.4,0.145,3.321h-3.141l-0.145-1.011
			c-0.523,0.74-1.534,1.372-2.744,1.372c-2.689,0-4.26-2.274-4.26-4.784c0-3.141,2.004-5.523,4.783-5.523
			C118.287,10.054,118.936,10.289,119.496,10.668z M115.921,15.253c0,1.841,0.885,2.762,2.021,2.762
			c0.704,0,1.264-0.361,1.553-0.867v-4.205c-0.379-0.344-0.849-0.542-1.498-0.542C116.662,12.401,115.921,13.682,115.921,15.253z"/>
		<path fill="#663300" d="M133.481,15.632l-5.614,0.145c0.108,1.39,0.921,2.13,2.474,2.13c1.534,0,2.671-0.506,3.646-1.102
			l-0.054,2.401c-1.174,0.704-2.437,1.137-3.972,1.137c-3.502,0-5.253-2.238-5.253-4.964c0-3.105,2.148-5.325,5.235-5.325
			c3.051,0,4.404,2.13,4.404,4.766L133.481,15.632z M131.46,14.17c-0.108-1.21-0.596-1.896-1.625-1.896
			c-1.102,0-1.823,0.848-1.949,2.003L131.46,14.17z"/>
	</g>
	<path fill-rule="evenodd" clip-rule="evenodd" fill="#339966" d="M52.232,33.346c-1.688-1.113-3.292-0.27-4.132,0.706
		c-0.313,0.364-0.851,0.794-1.865,0.794s-1.551-0.429-1.864-0.794c-0.84-0.976-2.444-1.819-4.132-0.706
		c-1.982,1.307-1.406,3.67-0.828,4.35l6.824,9.24l0,0l0,0l0,0l0,0l6.825-9.24C53.637,37.017,54.214,34.653,52.232,33.346z
		 M173.885-55.865c28.595,38.801,20.322,93.436-18.478,122.032S61.97,86.489,33.375,47.689S13.053-45.747,51.853-74.343
		S145.289-94.665,173.885-55.865z M73.046,44.447c-4.195,0-6.914-2.827-6.914-6.572c0-4.051,3.079-7.094,7.274-7.094
		c1.908,0,3.547,0.666,4.447,1.296l-0.791,2.593c-0.774-0.594-2.197-1.17-3.638-1.17c-2.538,0-4.068,1.747-4.068,4.141
		c0,2.736,1.836,4.178,3.961,4.178c0.72,0,1.332-0.108,1.891-0.324v-1.387c0-0.234,0-0.756-0.036-1.044
		c-0.612-0.018-0.396-0.018-1.026-0.018c-0.648,0-1.152,0.018-1.837,0.054c0.055-0.954,0.072-1.71,0.036-2.413
		c1.135,0.054,1.692,0.072,2.521,0.072c1.477,0,2.071-0.018,3.331-0.072c-0.09,0.738-0.144,3.331-0.144,4.537v1.909
		C76.953,43.78,75.441,44.447,73.046,44.447z M87.032,37.352c-1.585-0.198-3.188,0.27-3.188,2.017v2.719
		c0,0.702,0.019,1.531,0.072,2.053h-3.475c0.107-0.864,0.126-2.232,0.126-3.402v-3.025c0-1.152-0.055-2.179-0.162-3.025
		c0.666-0.018,2.664-0.27,3.259-0.36l0.162,2.305c0.612-1.386,1.729-2.25,3.438-2.413L87.032,37.352z M90.828,44.392
		c-1.782,0-2.916-1.008-2.916-2.664c0-1.928,1.638-3.224,4.933-3.224c0.217,0,0.469,0.018,0.757,0.036v-0.27
		c0.036-0.972-0.396-1.495-1.585-1.495c-1.08,0-2.232,0.414-2.971,0.882l-0.414-2.339c1.044-0.63,2.557-1.098,4.069-1.098
		c2.845,0,4.087,1.314,4.033,3.907l-0.09,3.402c-0.019,0.559,0.162,0.721,0.576,0.721c0.162,0,0.378-0.036,0.558-0.107l-0.144,1.908
		c-0.559,0.197-1.045,0.324-1.711,0.324c-1.062,0-1.891-0.433-2.16-1.566C93.224,43.78,92.053,44.392,90.828,44.392z M93.529,40.828
		l0.036-0.9c-0.198-0.019-0.378-0.036-0.612-0.036c-1.458,0-2.034,0.63-2.034,1.404c0,0.685,0.396,1.171,1.152,1.171
		C92.9,42.467,93.493,41.872,93.529,40.828z M105.644,43.906c-0.612,0.342-1.494,0.559-2.341,0.559
		c-2.088,0-3.312-0.828-3.312-3.403V36.74h-1.639l0.469-2.269h1.206l0.198-1.98l3.043-1.026v3.007h2.448
		c-0.036,0.432-0.054,1.548-0.054,2.269h-2.395v3.961c0,1.009,0.378,1.261,1.008,1.261c0.504,0,1.026-0.181,1.423-0.433
		L105.644,43.906z M109.225,32.833c-1.045,0-1.837-0.684-1.837-1.638c0-1.044,0.847-1.765,1.891-1.765
		c1.009,0,1.837,0.702,1.837,1.657C111.115,32.131,110.269,32.833,109.225,32.833z M107.388,44.14
		c0.09-0.864,0.145-2.106,0.145-3.277V37.91c0-1.152-0.055-2.521-0.145-3.385c0.721,0,2.899-0.126,3.493-0.18
		c-0.054,0.522-0.072,1.44-0.072,2.143v5.708c0,0.702,0.019,1.423,0.072,1.944H107.388z M118.783,44.501
		c-0.937,0-1.603-0.216-2.16-0.576v2.448c0,0.666,0.018,1.351,0.071,1.854c-0.396,0.036-3.15,0.271-3.475,0.343
		c0.09-0.847,0.108-2.161,0.108-3.313v-7.274c0-1.152-0.036-2.449-0.145-3.349c0.721,0,2.557-0.18,3.169-0.27l0.126,1.242
		c0.721-0.792,1.675-1.386,2.917-1.386c2.557,0,4.052,2.269,4.052,4.771C123.447,42.267,121.233,44.501,118.783,44.501z
		 M118.207,36.56c-0.666,0-1.206,0.36-1.584,0.864v4.159c0.378,0.359,0.828,0.594,1.584,0.594c1.225,0,1.98-1.332,1.98-2.898
		C120.188,37.406,119.323,36.56,118.207,36.56z M127.584,44.392c-1.782,0-2.916-1.008-2.916-2.664c0-1.928,1.638-3.224,4.933-3.224
		c0.217,0,0.469,0.018,0.757,0.036v-0.27c0.036-0.972-0.396-1.495-1.585-1.495c-1.08,0-2.232,0.414-2.971,0.882l-0.414-2.341
		c1.044-0.63,2.557-1.098,4.069-1.098c2.845,0,4.087,1.314,4.033,3.907l-0.09,3.402c-0.019,0.559,0.162,0.721,0.576,0.721
		c0.162,0,0.378-0.036,0.558-0.107l-0.144,1.908c-0.559,0.197-1.045,0.324-1.711,0.324c-1.062,0-1.891-0.433-2.16-1.566
		C129.98,43.78,128.809,44.392,127.584,44.392z M130.285,40.828l0.036-0.9c-0.198-0.019-0.378-0.036-0.612-0.036
		c-1.458,0-2.034,0.63-2.034,1.404c0,0.685,0.396,1.171,1.152,1.171C129.655,42.467,130.249,41.872,130.285,40.828z M138.456,43.33
		c-0.324-0.828-0.54-1.387-0.973-2.377l-1.134-2.592c-0.504-1.17-1.242-2.863-1.692-3.745c0.378,0,3.061-0.18,3.366-0.216
		l2.071,5.744l0.792-2.449c0.36-1.081,0.774-2.341,1.062-3.169c1.206,0,2.269,0,3.241-0.072l-4.088,9.994
		c-0.288,0.738-1.134,2.881-1.458,3.889c-1.135,0-2.431,0.036-3.385,0.144L138.456,43.33z M46.132,24c8.284,0,15,6.716,15,15
		s-6.716,15-15,15s-15-6.716-15-15S37.848,24,46.132,24z M151.167,4.966c-0.614-11.748-10.099-16.351-17.569-16.916
		c-2.785-0.21-6.656-1.245-10.156-5.994c-3.5-4.749-3.344-8.745-2.715-11.471c1.672-7.303,0.083-17.726-10.956-21.79
		c-12.963-4.772-22.042,6.083-23.232,11.137L66.816,23.788l0,0l0,0l0,0l0,0l66.835,0.072
		C138.823,24.218,151.887,18.761,151.167,4.966z"/>
	<line fill="none" x1="23.732" y1="54.5" x2="123.441" y2="-17.944"/>
</g>
<g id="Layer_2">
</g>
</svg>
