<?xml version="1.0" encoding="utf-8"?>
<!-- Generator: Adobe Illustrator 17.0.0, SVG Export Plug-In . SVG Version: 6.00 Build 0)  -->
<!DOCTYPE svg PUBLIC "-//W3C//DTD SVG 1.0//EN" "http://www.w3.org/TR/2001/REC-SVG-20010904/DTD/svg10.dtd">
<svg version="1.0" id="Layer_1" xmlns="http://www.w3.org/2000/svg" xmlns:xlink="http://www.w3.org/1999/xlink" x="0px" y="0px"
	 width="45.558px" height="35.795px" viewBox="0 0 45.558 35.795" enable-background="new 0 0 45.558 35.795" xml:space="preserve">
<g id="Heart_Coin">
	<circle id="Coin" fill="#663300" cx="21.613" cy="15.896" r="15"/>
	<path id="Heart" fill="#FFFFFF" d="M27.712,10.242c-1.688-1.113-3.292-0.27-4.132,0.707c-0.314,0.364-0.851,0.793-1.865,0.793
		c-1.014,0-1.551-0.429-1.864-0.793c-0.84-0.977-2.444-1.819-4.132-0.707c-1.982,1.307-1.406,3.67-0.828,4.35l6.824,9.24l0,0l0,0
		l0,0l0,0l6.825-9.24C29.118,13.913,29.694,11.549,27.712,10.242z"/>
	<path id="Old_Heart__x28_old_x29_" display="none" fill="#FFFFFF" d="M21.698,25.01c0,0-12.939-11.731-7.177-15.744
		c3.448-2.731,6.8,3.006,7.195,3.818c0.751-1.362,3.875-6.477,7.349-3.736C34.443,13.696,21.698,25.01,21.698,25.01z"/>
</g>
<g>
	<line fill="none" stroke="#454546" stroke-width="0.15" stroke-miterlimit="10" x1="21.458" y1="5.965" x2="21.916" y2="5.965"/>
	<line fill="none" stroke="#454546" stroke-width="0.15" stroke-miterlimit="10" x1="23.718" y1="15.793" x2="23.653" y2="16.285"/>
	<line fill="none" stroke="#454546" stroke-width="0.15" stroke-miterlimit="10" x1="23.653" y1="16.285" x2="23.456" y2="16.776"/>
	<line fill="none" stroke="#454546" stroke-width="0.15" stroke-miterlimit="10" x1="23.456" y1="16.776" x2="23.26" y2="17.038"/>
	<line fill="none" stroke="#454546" stroke-width="0.15" stroke-miterlimit="10" x1="22.047" y1="17.759" x2="21.818" y2="17.792"/>
	<line fill="none" stroke="#454546" stroke-width="0.15" stroke-miterlimit="10" x1="21.818" y1="17.792" x2="21.294" y2="17.759"/>
	<line fill="none" stroke="#454546" stroke-width="0.15" stroke-miterlimit="10" x1="21.294" y1="17.759" x2="20.835" y2="17.628"/>
	<line fill="none" stroke="#454546" stroke-width="0.15" stroke-miterlimit="10" x1="20.835" y1="17.628" x2="20.409" y2="17.333"/>
	<line fill="none" stroke="#454546" stroke-width="0.15" stroke-miterlimit="10" x1="20.409" y1="17.333" x2="20.049" y2="16.973"/>
	<line fill="none" stroke="#454546" stroke-width="0.15" stroke-miterlimit="10" x1="20.049" y1="16.973" x2="19.82" y2="16.514"/>
	
		<rect x="19.82" y="16.514" fill="none" stroke="#454546" stroke-width="0.15" stroke-miterlimit="10" width="0.033" height="0.033"/>
	<line fill="none" stroke="#454546" stroke-width="0.15" stroke-miterlimit="10" x1="19.787" y1="15.105" x2="19.82" y2="15.04"/>
	<line fill="none" stroke="#454546" stroke-width="0.15" stroke-miterlimit="10" x1="19.82" y1="15.04" x2="20.049" y2="14.581"/>
	<line fill="none" stroke="#454546" stroke-width="0.15" stroke-miterlimit="10" x1="20.049" y1="14.581" x2="20.409" y2="14.221"/>
	<line fill="none" stroke="#454546" stroke-width="0.15" stroke-miterlimit="10" x1="20.409" y1="14.221" x2="20.835" y2="13.959"/>
	<line fill="none" stroke="#454546" stroke-width="0.15" stroke-miterlimit="10" x1="20.835" y1="13.959" x2="21.294" y2="13.795"/>
	<line fill="none" stroke="#454546" stroke-width="0.15" stroke-miterlimit="10" x1="21.294" y1="13.795" x2="21.818" y2="13.762"/>
	<line fill="none" stroke="#454546" stroke-width="0.15" stroke-miterlimit="10" x1="21.818" y1="13.762" x2="22.015" y2="13.795"/>
	<line fill="none" stroke="#454546" stroke-width="0.15" stroke-miterlimit="10" x1="23.227" y1="14.483" x2="23.456" y2="14.81"/>
	<line fill="none" stroke="#454546" stroke-width="0.15" stroke-miterlimit="10" x1="23.456" y1="14.81" x2="23.653" y2="15.269"/>
	<line fill="none" stroke="#454546" stroke-width="0.15" stroke-miterlimit="10" x1="23.653" y1="15.269" x2="23.718" y2="15.793"/>
	<line fill="none" stroke="#454546" stroke-width="0.15" stroke-miterlimit="10" x1="31.515" y1="15.793" x2="31.45" y2="14.614"/>
	<line fill="none" stroke="#454546" stroke-width="0.15" stroke-miterlimit="10" x1="31.45" y1="14.614" x2="31.253" y2="13.467"/>
	<line fill="none" stroke="#454546" stroke-width="0.15" stroke-miterlimit="10" x1="31.253" y1="13.467" x2="30.893" y2="12.353"/>
	<line fill="none" stroke="#454546" stroke-width="0.15" stroke-miterlimit="10" x1="30.893" y1="12.353" x2="30.434" y2="11.272"/>
	<line fill="none" stroke="#454546" stroke-width="0.15" stroke-miterlimit="10" x1="30.434" y1="11.272" x2="29.812" y2="10.257"/>
	<line fill="none" stroke="#454546" stroke-width="0.15" stroke-miterlimit="10" x1="29.812" y1="10.257" x2="29.124" y2="9.34"/>
	<line fill="none" stroke="#454546" stroke-width="0.15" stroke-miterlimit="10" x1="29.124" y1="9.34" x2="28.305" y2="8.521"/>
	<line fill="none" stroke="#454546" stroke-width="0.15" stroke-miterlimit="10" x1="28.305" y1="8.521" x2="27.387" y2="7.767"/>
	<line fill="none" stroke="#454546" stroke-width="0.15" stroke-miterlimit="10" x1="27.387" y1="7.767" x2="26.405" y2="7.145"/>
	<line fill="none" stroke="#454546" stroke-width="0.15" stroke-miterlimit="10" x1="26.405" y1="7.145" x2="25.323" y2="6.653"/>
	<line fill="none" stroke="#454546" stroke-width="0.15" stroke-miterlimit="10" x1="25.323" y1="6.653" x2="24.21" y2="6.293"/>
	<line fill="none" stroke="#454546" stroke-width="0.15" stroke-miterlimit="10" x1="24.21" y1="6.293" x2="23.063" y2="6.064"/>
	<line fill="none" stroke="#454546" stroke-width="0.15" stroke-miterlimit="10" x1="23.063" y1="6.064" x2="21.916" y2="5.965"/>
	<line fill="none" stroke="#454546" stroke-width="0.15" stroke-miterlimit="10" x1="14.906" y1="22.902" x2="14.971" y2="22.968"/>
	<line fill="none" stroke="#454546" stroke-width="0.15" stroke-miterlimit="10" x1="15.07" y1="23.066" x2="15.168" y2="23.132"/>
	<line fill="none" stroke="#454546" stroke-width="0.15" stroke-miterlimit="10" x1="20.999" y1="25.589" x2="21.228" y2="25.589"/>
	<line fill="none" stroke="#454546" stroke-width="0.15" stroke-miterlimit="10" x1="21.491" y1="25.589" x2="21.753" y2="25.621"/>
	
		<rect x="28.337" y="23.033" fill="none" stroke="#454546" stroke-width="0.15" stroke-miterlimit="10" width="0.033" height="0.033"/>
	
		<rect x="28.436" y="22.935" fill="none" stroke="#454546" stroke-width="0.15" stroke-miterlimit="10" width="0.033" height="0.033"/>
	<line fill="none" stroke="#454546" stroke-width="0.15" stroke-miterlimit="10" x1="31.384" y1="17.366" x2="31.515" y2="15.793"/>
	<line fill="none" stroke="#454546" stroke-width="0.15" stroke-miterlimit="10" x1="28.075" y1="22.182" x2="26.699" y2="22.182"/>
	<line fill="none" stroke="#454546" stroke-width="0.15" stroke-miterlimit="10" x1="25.225" y1="22.182" x2="22.441" y2="22.182"/>
	<line fill="none" stroke="#454546" stroke-width="0.15" stroke-miterlimit="10" x1="20.966" y1="22.182" x2="18.182" y2="22.182"/>
	<line fill="none" stroke="#454546" stroke-width="0.15" stroke-miterlimit="10" x1="16.708" y1="22.182" x2="15.299" y2="22.182"/>
	<line fill="none" stroke="#454546" stroke-width="0.15" stroke-miterlimit="10" x1="28.075" y1="9.405" x2="28.075" y2="10.781"/>
	<line fill="none" stroke="#454546" stroke-width="0.15" stroke-miterlimit="10" x1="28.075" y1="12.222" x2="28.075" y2="15.04"/>
	<line fill="none" stroke="#454546" stroke-width="0.15" stroke-miterlimit="10" x1="28.075" y1="16.481" x2="28.075" y2="19.299"/>
	<line fill="none" stroke="#454546" stroke-width="0.15" stroke-miterlimit="10" x1="28.075" y1="20.74" x2="28.075" y2="22.182"/>
	<line fill="none" stroke="#454546" stroke-width="0.15" stroke-miterlimit="10" x1="15.299" y1="22.182" x2="15.299" y2="20.773"/>
	<line fill="none" stroke="#454546" stroke-width="0.15" stroke-miterlimit="10" x1="15.299" y1="19.331" x2="15.299" y2="16.514"/>
	<line fill="none" stroke="#454546" stroke-width="0.15" stroke-miterlimit="10" x1="15.299" y1="15.073" x2="15.299" y2="12.255"/>
	<line fill="none" stroke="#454546" stroke-width="0.15" stroke-miterlimit="10" x1="15.299" y1="10.814" x2="15.299" y2="9.405"/>
	<line fill="none" stroke="#454546" stroke-width="0.15" stroke-miterlimit="10" x1="15.299" y1="9.405" x2="16.675" y2="9.405"/>
	<line fill="none" stroke="#454546" stroke-width="0.15" stroke-miterlimit="10" x1="18.149" y1="9.405" x2="20.934" y2="9.405"/>
	<line fill="none" stroke="#454546" stroke-width="0.15" stroke-miterlimit="10" x1="22.408" y1="9.405" x2="25.192" y2="9.405"/>
	<line fill="none" stroke="#454546" stroke-width="0.15" stroke-miterlimit="10" x1="26.667" y1="9.405" x2="28.075" y2="9.405"/>
	<line fill="none" stroke="#454546" stroke-width="0.15" stroke-miterlimit="10" x1="28.075" y1="9.405" x2="28.174" y2="9.274"/>
	<line fill="none" stroke="#454546" stroke-width="0.15" stroke-miterlimit="10" x1="28.337" y1="9.143" x2="28.468" y2="9.012"/>
	<line fill="none" stroke="#454546" stroke-width="0.15" stroke-miterlimit="10" x1="14.906" y1="9.012" x2="15.004" y2="9.11"/>
	<line fill="none" stroke="#454546" stroke-width="0.15" stroke-miterlimit="10" x1="15.168" y1="9.274" x2="15.299" y2="9.405"/>
	<line fill="none" stroke="#454546" stroke-width="0.15" stroke-miterlimit="10" x1="28.075" y1="22.182" x2="28.174" y2="22.28"/>
	<line fill="none" stroke="#454546" stroke-width="0.15" stroke-miterlimit="10" x1="28.337" y1="22.444" x2="28.468" y2="22.575"/>
	<line fill="none" stroke="#454546" stroke-width="0.15" stroke-miterlimit="10" x1="14.906" y1="22.575" x2="15.004" y2="22.444"/>
	<line fill="none" stroke="#454546" stroke-width="0.15" stroke-miterlimit="10" x1="15.168" y1="22.313" x2="15.299" y2="22.182"/>
	<line fill="none" stroke="#454546" stroke-width="0.15" stroke-miterlimit="10" x1="17.985" y1="12.091" x2="17.985" y2="14.516"/>
	<line fill="none" stroke="#454546" stroke-width="0.15" stroke-miterlimit="10" x1="17.985" y1="17.005" x2="17.985" y2="19.495"/>
	<line fill="none" stroke="#454546" stroke-width="0.15" stroke-miterlimit="10" x1="23.653" y1="10.846" x2="23.26" y2="11.24"/>
	<line fill="none" stroke="#454546" stroke-width="0.15" stroke-miterlimit="10" x1="23.26" y1="11.24" x2="22.768" y2="11.534"/>
	<line fill="none" stroke="#454546" stroke-width="0.15" stroke-miterlimit="10" x1="22.768" y1="11.534" x2="22.244" y2="11.698"/>
	<line fill="none" stroke="#454546" stroke-width="0.15" stroke-miterlimit="10" x1="22.244" y1="11.698" x2="21.687" y2="11.764"/>
	<line fill="none" stroke="#454546" stroke-width="0.15" stroke-miterlimit="10" x1="21.687" y1="11.764" x2="21.13" y2="11.698"/>
	<line fill="none" stroke="#454546" stroke-width="0.15" stroke-miterlimit="10" x1="21.13" y1="11.698" x2="20.606" y2="11.534"/>
	<line fill="none" stroke="#454546" stroke-width="0.15" stroke-miterlimit="10" x1="20.606" y1="11.534" x2="20.115" y2="11.24"/>
	<line fill="none" stroke="#454546" stroke-width="0.15" stroke-miterlimit="10" x1="20.115" y1="11.24" x2="19.721" y2="10.846"/>
	<line fill="none" stroke="#454546" stroke-width="0.15" stroke-miterlimit="10" x1="19.721" y1="10.846" x2="19.263" y2="10.388"/>
	<line fill="none" stroke="#454546" stroke-width="0.15" stroke-miterlimit="10" x1="19.263" y1="10.388" x2="18.739" y2="10.06"/>
	<line fill="none" stroke="#454546" stroke-width="0.15" stroke-miterlimit="10" x1="18.739" y1="10.06" x2="18.149" y2="9.831"/>
	<line fill="none" stroke="#454546" stroke-width="0.15" stroke-miterlimit="10" x1="18.149" y1="9.831" x2="17.527" y2="9.733"/>
	<line fill="none" stroke="#454546" stroke-width="0.15" stroke-miterlimit="10" x1="17.527" y1="9.733" x2="16.904" y2="9.765"/>
	<line fill="none" stroke="#454546" stroke-width="0.15" stroke-miterlimit="10" x1="16.904" y1="9.765" x2="16.282" y2="9.929"/>
	<line fill="none" stroke="#454546" stroke-width="0.15" stroke-miterlimit="10" x1="16.282" y1="9.929" x2="15.725" y2="10.224"/>
	<line fill="none" stroke="#454546" stroke-width="0.15" stroke-miterlimit="10" x1="15.725" y1="10.224" x2="15.233" y2="10.584"/>
	<line fill="none" stroke="#454546" stroke-width="0.15" stroke-miterlimit="10" x1="15.233" y1="10.584" x2="14.84" y2="11.076"/>
	<line fill="none" stroke="#454546" stroke-width="0.15" stroke-miterlimit="10" x1="14.84" y1="11.076" x2="14.545" y2="11.633"/>
	<line fill="none" stroke="#454546" stroke-width="0.15" stroke-miterlimit="10" x1="14.545" y1="11.633" x2="14.349" y2="12.255"/>
	<line fill="none" stroke="#454546" stroke-width="0.15" stroke-miterlimit="10" x1="14.349" y1="12.255" x2="14.316" y2="12.878"/>
	<line fill="none" stroke="#454546" stroke-width="0.15" stroke-miterlimit="10" x1="14.316" y1="12.878" x2="14.382" y2="13.5"/>
	<line fill="none" stroke="#454546" stroke-width="0.15" stroke-miterlimit="10" x1="14.382" y1="13.5" x2="14.578" y2="14.09"/>
	<line fill="none" stroke="#454546" stroke-width="0.15" stroke-miterlimit="10" x1="14.578" y1="14.09" x2="14.906" y2="14.614"/>
	<line fill="none" stroke="#454546" stroke-width="0.15" stroke-miterlimit="10" x1="14.906" y1="14.614" x2="21.687" y2="23.82"/>
	<line fill="none" stroke="#454546" stroke-width="0.15" stroke-miterlimit="10" x1="21.687" y1="23.82" x2="28.468" y2="14.614"/>
	<line fill="none" stroke="#454546" stroke-width="0.15" stroke-miterlimit="10" x1="28.468" y1="14.614" x2="28.796" y2="14.09"/>
	<line fill="none" stroke="#454546" stroke-width="0.15" stroke-miterlimit="10" x1="28.796" y1="14.09" x2="28.993" y2="13.5"/>
	<line fill="none" stroke="#454546" stroke-width="0.15" stroke-miterlimit="10" x1="28.993" y1="13.5" x2="29.058" y2="12.878"/>
	<line fill="none" stroke="#454546" stroke-width="0.15" stroke-miterlimit="10" x1="29.058" y1="12.878" x2="29.025" y2="12.255"/>
	<line fill="none" stroke="#454546" stroke-width="0.15" stroke-miterlimit="10" x1="29.025" y1="12.255" x2="28.829" y2="11.633"/>
	<line fill="none" stroke="#454546" stroke-width="0.15" stroke-miterlimit="10" x1="28.829" y1="11.633" x2="28.534" y2="11.076"/>
	<line fill="none" stroke="#454546" stroke-width="0.15" stroke-miterlimit="10" x1="28.534" y1="11.076" x2="28.141" y2="10.584"/>
	<line fill="none" stroke="#454546" stroke-width="0.15" stroke-miterlimit="10" x1="28.141" y1="10.584" x2="27.649" y2="10.224"/>
	<line fill="none" stroke="#454546" stroke-width="0.15" stroke-miterlimit="10" x1="27.649" y1="10.224" x2="27.093" y2="9.929"/>
	<line fill="none" stroke="#454546" stroke-width="0.15" stroke-miterlimit="10" x1="27.093" y1="9.929" x2="26.47" y2="9.765"/>
	<line fill="none" stroke="#454546" stroke-width="0.15" stroke-miterlimit="10" x1="26.47" y1="9.765" x2="25.848" y2="9.733"/>
	<line fill="none" stroke="#454546" stroke-width="0.15" stroke-miterlimit="10" x1="25.848" y1="9.733" x2="25.225" y2="9.831"/>
	<line fill="none" stroke="#454546" stroke-width="0.15" stroke-miterlimit="10" x1="25.225" y1="9.831" x2="24.635" y2="10.06"/>
	<line fill="none" stroke="#454546" stroke-width="0.15" stroke-miterlimit="10" x1="24.635" y1="10.06" x2="24.111" y2="10.388"/>
	<line fill="none" stroke="#454546" stroke-width="0.15" stroke-miterlimit="10" x1="24.111" y1="10.388" x2="23.653" y2="10.846"/>
	<line fill="none" stroke="#454546" stroke-width="0.15" stroke-miterlimit="10" x1="24.144" y1="15.793" x2="24.079" y2="16.35"/>
	<line fill="none" stroke="#454546" stroke-width="0.15" stroke-miterlimit="10" x1="24.079" y1="16.35" x2="23.882" y2="16.874"/>
	<line fill="none" stroke="#454546" stroke-width="0.15" stroke-miterlimit="10" x1="23.882" y1="16.874" x2="23.554" y2="17.366"/>
	<line fill="none" stroke="#454546" stroke-width="0.15" stroke-miterlimit="10" x1="23.554" y1="17.366" x2="23.161" y2="17.759"/>
	<line fill="none" stroke="#454546" stroke-width="0.15" stroke-miterlimit="10" x1="23.161" y1="17.759" x2="22.67" y2="18.054"/>
	<line fill="none" stroke="#454546" stroke-width="0.15" stroke-miterlimit="10" x1="22.67" y1="18.054" x2="22.113" y2="18.218"/>
	<line fill="none" stroke="#454546" stroke-width="0.15" stroke-miterlimit="10" x1="22.113" y1="18.218" x2="21.556" y2="18.25"/>
	<line fill="none" stroke="#454546" stroke-width="0.15" stroke-miterlimit="10" x1="21.556" y1="18.25" x2="20.966" y2="18.152"/>
	<line fill="none" stroke="#454546" stroke-width="0.15" stroke-miterlimit="10" x1="20.966" y1="18.152" x2="20.442" y2="17.923"/>
	<line fill="none" stroke="#454546" stroke-width="0.15" stroke-miterlimit="10" x1="20.442" y1="17.923" x2="20.016" y2="17.562"/>
	<line fill="none" stroke="#454546" stroke-width="0.15" stroke-miterlimit="10" x1="20.016" y1="17.562" x2="19.623" y2="17.136"/>
	<line fill="none" stroke="#454546" stroke-width="0.15" stroke-miterlimit="10" x1="19.623" y1="17.136" x2="19.394" y2="16.612"/>
	<line fill="none" stroke="#454546" stroke-width="0.15" stroke-miterlimit="10" x1="19.394" y1="16.612" x2="19.263" y2="16.055"/>
	<line fill="none" stroke="#454546" stroke-width="0.15" stroke-miterlimit="10" x1="19.263" y1="16.055" x2="19.263" y2="15.498"/>
	<line fill="none" stroke="#454546" stroke-width="0.15" stroke-miterlimit="10" x1="19.263" y1="15.498" x2="19.394" y2="14.942"/>
	<line fill="none" stroke="#454546" stroke-width="0.15" stroke-miterlimit="10" x1="19.394" y1="14.942" x2="19.623" y2="14.45"/>
	<line fill="none" stroke="#454546" stroke-width="0.15" stroke-miterlimit="10" x1="19.623" y1="14.45" x2="20.016" y2="13.991"/>
	<line fill="none" stroke="#454546" stroke-width="0.15" stroke-miterlimit="10" x1="20.016" y1="13.991" x2="20.442" y2="13.664"/>
	<line fill="none" stroke="#454546" stroke-width="0.15" stroke-miterlimit="10" x1="20.442" y1="13.664" x2="20.966" y2="13.435"/>
	<line fill="none" stroke="#454546" stroke-width="0.15" stroke-miterlimit="10" x1="20.966" y1="13.435" x2="21.556" y2="13.336"/>
	<line fill="none" stroke="#454546" stroke-width="0.15" stroke-miterlimit="10" x1="21.556" y1="13.336" x2="22.113" y2="13.369"/>
	<line fill="none" stroke="#454546" stroke-width="0.15" stroke-miterlimit="10" x1="22.113" y1="13.369" x2="22.67" y2="13.533"/>
	<line fill="none" stroke="#454546" stroke-width="0.15" stroke-miterlimit="10" x1="22.67" y1="13.533" x2="23.161" y2="13.828"/>
	<line fill="none" stroke="#454546" stroke-width="0.15" stroke-miterlimit="10" x1="23.161" y1="13.828" x2="23.554" y2="14.221"/>
	<line fill="none" stroke="#454546" stroke-width="0.15" stroke-miterlimit="10" x1="23.554" y1="14.221" x2="23.882" y2="14.679"/>
	<line fill="none" stroke="#454546" stroke-width="0.15" stroke-miterlimit="10" x1="23.882" y1="14.679" x2="24.079" y2="15.204"/>
	<line fill="none" stroke="#454546" stroke-width="0.15" stroke-miterlimit="10" x1="24.079" y1="15.204" x2="24.144" y2="15.793"/>
	<line fill="none" stroke="#454546" stroke-width="0.15" stroke-miterlimit="10" x1="21.916" y1="5.965" x2="23.03" y2="6.064"/>
	<line fill="none" stroke="#454546" stroke-width="0.15" stroke-miterlimit="10" x1="23.03" y1="6.064" x2="24.111" y2="6.26"/>
	<line fill="none" stroke="#454546" stroke-width="0.15" stroke-miterlimit="10" x1="24.111" y1="6.26" x2="25.192" y2="6.588"/>
	<line fill="none" stroke="#454546" stroke-width="0.15" stroke-miterlimit="10" x1="25.192" y1="6.588" x2="26.208" y2="7.046"/>
	<line fill="none" stroke="#454546" stroke-width="0.15" stroke-miterlimit="10" x1="26.208" y1="7.046" x2="27.191" y2="7.636"/>
	<line fill="none" stroke="#454546" stroke-width="0.15" stroke-miterlimit="10" x1="27.191" y1="7.636" x2="28.075" y2="8.324"/>
	<line fill="none" stroke="#454546" stroke-width="0.15" stroke-miterlimit="10" x1="28.075" y1="8.324" x2="28.894" y2="9.077"/>
	<line fill="none" stroke="#454546" stroke-width="0.15" stroke-miterlimit="10" x1="28.894" y1="9.077" x2="29.582" y2="9.962"/>
	<line fill="none" stroke="#454546" stroke-width="0.15" stroke-miterlimit="10" x1="29.582" y1="9.962" x2="30.205" y2="10.879"/>
	<line fill="none" stroke="#454546" stroke-width="0.15" stroke-miterlimit="10" x1="30.205" y1="10.879" x2="30.696" y2="11.895"/>
	<line fill="none" stroke="#454546" stroke-width="0.15" stroke-miterlimit="10" x1="30.696" y1="11.895" x2="31.089" y2="12.943"/>
	<line fill="none" stroke="#454546" stroke-width="0.15" stroke-miterlimit="10" x1="31.089" y1="12.943" x2="31.351" y2="14.024"/>
	<line fill="none" stroke="#454546" stroke-width="0.15" stroke-miterlimit="10" x1="31.351" y1="14.024" x2="31.482" y2="15.138"/>
	<line fill="none" stroke="#454546" stroke-width="0.15" stroke-miterlimit="10" x1="31.482" y1="15.138" x2="31.515" y2="16.252"/>
	<line fill="none" stroke="#454546" stroke-width="0.15" stroke-miterlimit="10" x1="31.515" y1="16.252" x2="31.384" y2="17.366"/>
	<line fill="none" stroke="#454546" stroke-width="0.15" stroke-miterlimit="10" x1="31.384" y1="17.366" x2="31.188" y2="18.349"/>
	<line fill="none" stroke="#454546" stroke-width="0.15" stroke-miterlimit="10" x1="31.188" y1="18.349" x2="30.86" y2="19.299"/>
	<line fill="none" stroke="#454546" stroke-width="0.15" stroke-miterlimit="10" x1="30.86" y1="19.299" x2="30.467" y2="20.183"/>
	<line fill="none" stroke="#454546" stroke-width="0.15" stroke-miterlimit="10" x1="30.467" y1="20.183" x2="29.91" y2="21.166"/>
	<line fill="none" stroke="#454546" stroke-width="0.15" stroke-miterlimit="10" x1="29.91" y1="21.166" x2="29.255" y2="22.083"/>
	<line fill="none" stroke="#454546" stroke-width="0.15" stroke-miterlimit="10" x1="29.255" y1="22.083" x2="28.468" y2="22.902"/>
	<line fill="none" stroke="#454546" stroke-width="0.15" stroke-miterlimit="10" x1="14.906" y1="22.902" x2="14.119" y2="22.083"/>
	<line fill="none" stroke="#454546" stroke-width="0.15" stroke-miterlimit="10" x1="14.119" y1="22.083" x2="13.464" y2="21.166"/>
	<line fill="none" stroke="#454546" stroke-width="0.15" stroke-miterlimit="10" x1="13.464" y1="21.166" x2="12.907" y2="20.183"/>
	<line fill="none" stroke="#454546" stroke-width="0.15" stroke-miterlimit="10" x1="12.907" y1="20.183" x2="12.514" y2="19.299"/>
	<line fill="none" stroke="#454546" stroke-width="0.15" stroke-miterlimit="10" x1="12.514" y1="19.299" x2="12.187" y2="18.349"/>
	<line fill="none" stroke="#454546" stroke-width="0.15" stroke-miterlimit="10" x1="12.187" y1="18.349" x2="11.99" y2="17.366"/>
	<line fill="none" stroke="#454546" stroke-width="0.15" stroke-miterlimit="10" x1="11.99" y1="17.366" x2="11.859" y2="16.252"/>
	<line fill="none" stroke="#454546" stroke-width="0.15" stroke-miterlimit="10" x1="11.859" y1="16.252" x2="11.892" y2="15.138"/>
	<line fill="none" stroke="#454546" stroke-width="0.15" stroke-miterlimit="10" x1="11.892" y1="15.138" x2="12.023" y2="14.024"/>
	<line fill="none" stroke="#454546" stroke-width="0.15" stroke-miterlimit="10" x1="12.023" y1="14.024" x2="12.285" y2="12.943"/>
	<line fill="none" stroke="#454546" stroke-width="0.15" stroke-miterlimit="10" x1="12.285" y1="12.943" x2="12.678" y2="11.895"/>
	<line fill="none" stroke="#454546" stroke-width="0.15" stroke-miterlimit="10" x1="12.678" y1="11.895" x2="13.169" y2="10.879"/>
	<line fill="none" stroke="#454546" stroke-width="0.15" stroke-miterlimit="10" x1="13.169" y1="10.879" x2="13.792" y2="9.962"/>
	<line fill="none" stroke="#454546" stroke-width="0.15" stroke-miterlimit="10" x1="13.792" y1="9.962" x2="14.48" y2="9.077"/>
	<line fill="none" stroke="#454546" stroke-width="0.15" stroke-miterlimit="10" x1="14.48" y1="9.077" x2="15.299" y2="8.324"/>
	<line fill="none" stroke="#454546" stroke-width="0.15" stroke-miterlimit="10" x1="15.299" y1="8.324" x2="16.183" y2="7.636"/>
	<line fill="none" stroke="#454546" stroke-width="0.15" stroke-miterlimit="10" x1="16.183" y1="7.636" x2="17.166" y2="7.046"/>
	<line fill="none" stroke="#454546" stroke-width="0.15" stroke-miterlimit="10" x1="17.166" y1="7.046" x2="18.182" y2="6.588"/>
	<line fill="none" stroke="#454546" stroke-width="0.15" stroke-miterlimit="10" x1="18.182" y1="6.588" x2="19.263" y2="6.26"/>
	<line fill="none" stroke="#454546" stroke-width="0.15" stroke-miterlimit="10" x1="19.263" y1="6.26" x2="20.344" y2="6.064"/>
	<line fill="none" stroke="#454546" stroke-width="0.15" stroke-miterlimit="10" x1="20.344" y1="6.064" x2="21.458" y2="5.965"/>
	<line fill="none" stroke="#454546" stroke-width="0.15" stroke-miterlimit="10" x1="28.468" y1="22.902" x2="27.649" y2="23.59"/>
	<line fill="none" stroke="#454546" stroke-width="0.15" stroke-miterlimit="10" x1="27.649" y1="23.59" x2="26.765" y2="24.18"/>
	<line fill="none" stroke="#454546" stroke-width="0.15" stroke-miterlimit="10" x1="26.765" y1="24.18" x2="25.815" y2="24.704"/>
	<line fill="none" stroke="#454546" stroke-width="0.15" stroke-miterlimit="10" x1="25.815" y1="24.704" x2="24.832" y2="25.097"/>
	<line fill="none" stroke="#454546" stroke-width="0.15" stroke-miterlimit="10" x1="24.832" y1="25.097" x2="23.816" y2="25.392"/>
	<line fill="none" stroke="#454546" stroke-width="0.15" stroke-miterlimit="10" x1="23.816" y1="25.392" x2="22.768" y2="25.556"/>
	<line fill="none" stroke="#454546" stroke-width="0.15" stroke-miterlimit="10" x1="22.768" y1="25.556" x2="21.687" y2="25.621"/>
	<line fill="none" stroke="#454546" stroke-width="0.15" stroke-miterlimit="10" x1="21.687" y1="25.621" x2="20.606" y2="25.556"/>
	<line fill="none" stroke="#454546" stroke-width="0.15" stroke-miterlimit="10" x1="20.606" y1="25.556" x2="19.558" y2="25.392"/>
	<line fill="none" stroke="#454546" stroke-width="0.15" stroke-miterlimit="10" x1="19.558" y1="25.392" x2="18.542" y2="25.097"/>
	<line fill="none" stroke="#454546" stroke-width="0.15" stroke-miterlimit="10" x1="18.542" y1="25.097" x2="17.527" y2="24.704"/>
	<line fill="none" stroke="#454546" stroke-width="0.15" stroke-miterlimit="10" x1="17.527" y1="24.704" x2="16.609" y2="24.18"/>
	<line fill="none" stroke="#454546" stroke-width="0.15" stroke-miterlimit="10" x1="16.609" y1="24.18" x2="15.725" y2="23.59"/>
	<line fill="none" stroke="#454546" stroke-width="0.15" stroke-miterlimit="10" x1="15.725" y1="23.59" x2="14.906" y2="22.902"/>
	<line fill="none" stroke="#454546" stroke-width="0.15" stroke-miterlimit="10" x1="21.687" y1="23.82" x2="21.687" y2="25.621"/>
	<line fill="none" stroke="#454546" stroke-width="0.15" stroke-miterlimit="10" x1="17.985" y1="12.091" x2="16.216" y2="12.091"/>
	<line fill="none" stroke="#454546" stroke-width="0.15" stroke-miterlimit="10" x1="14.382" y1="12.091" x2="12.58" y2="12.091"/>
	<line fill="none" stroke="#454546" stroke-width="0.15" stroke-miterlimit="10" x1="12.58" y1="19.495" x2="14.349" y2="19.495"/>
	<line fill="none" stroke="#454546" stroke-width="0.15" stroke-miterlimit="10" x1="16.183" y1="19.495" x2="17.985" y2="19.495"/>
	<line fill="none" stroke="#454546" stroke-width="0.15" stroke-miterlimit="10" x1="17.985" y1="19.495" x2="18.706" y2="18.283"/>
	<line fill="none" stroke="#454546" stroke-width="0.15" stroke-miterlimit="10" x1="19.459" y1="17.005" x2="20.213" y2="15.793"/>
	<line fill="none" stroke="#454546" stroke-width="0.15" stroke-miterlimit="10" x1="20.213" y1="15.793" x2="19.492" y2="14.581"/>
	<line fill="none" stroke="#454546" stroke-width="0.15" stroke-miterlimit="10" x1="18.739" y1="13.336" x2="17.985" y2="12.091"/>
	<line fill="none" stroke="#454546" stroke-width="0.15" stroke-miterlimit="10" x1="23.653" y1="10.846" x2="23.26" y2="11.24"/>
	<line fill="none" stroke="#454546" stroke-width="0.15" stroke-miterlimit="10" x1="23.26" y1="11.24" x2="23.129" y2="11.305"/>
	<line fill="none" stroke="#454546" stroke-width="0.15" stroke-miterlimit="10" x1="22.408" y1="11.633" x2="22.244" y2="11.698"/>
	<line fill="none" stroke="#454546" stroke-width="0.15" stroke-miterlimit="10" x1="22.244" y1="11.698" x2="21.687" y2="11.764"/>
	<line fill="none" stroke="#454546" stroke-width="0.15" stroke-miterlimit="10" x1="21.687" y1="11.764" x2="21.13" y2="11.698"/>
	<line fill="none" stroke="#454546" stroke-width="0.15" stroke-miterlimit="10" x1="21.13" y1="11.698" x2="20.999" y2="11.665"/>
	<line fill="none" stroke="#454546" stroke-width="0.15" stroke-miterlimit="10" x1="20.278" y1="11.338" x2="20.115" y2="11.24"/>
	<line fill="none" stroke="#454546" stroke-width="0.15" stroke-miterlimit="10" x1="20.115" y1="11.24" x2="19.721" y2="10.846"/>
	<line fill="none" stroke="#454546" stroke-width="0.15" stroke-miterlimit="10" x1="22.67" y1="15.793" x2="20.704" y2="15.793"/>
	<line fill="none" stroke="#454546" stroke-width="0.15" stroke-miterlimit="10" x1="21.687" y1="14.81" x2="21.687" y2="16.776"/>
	<line fill="none" stroke="#454546" stroke-width="0.15" stroke-miterlimit="10" x1="23.653" y1="15.793" x2="26.732" y2="15.793"/>
	<line fill="none" stroke="#454546" stroke-width="0.15" stroke-miterlimit="10" x1="28.141" y1="15.793" x2="29.451" y2="15.793"/>
	<line fill="none" stroke="#454546" stroke-width="0.15" stroke-miterlimit="10" x1="30.86" y1="15.793" x2="33.972" y2="15.793"/>
	<line fill="none" stroke="#454546" stroke-width="0.15" stroke-miterlimit="10" x1="21.687" y1="13.828" x2="21.687" y2="10.715"/>
	<line fill="none" stroke="#454546" stroke-width="0.15" stroke-miterlimit="10" x1="21.687" y1="9.34" x2="21.687" y2="8.029"/>
	<line fill="none" stroke="#454546" stroke-width="0.15" stroke-miterlimit="10" x1="21.687" y1="6.62" x2="21.687" y2="3.508"/>
	<line fill="none" stroke="#454546" stroke-width="0.15" stroke-miterlimit="10" x1="19.721" y1="15.793" x2="16.642" y2="15.793"/>
	<line fill="none" stroke="#454546" stroke-width="0.15" stroke-miterlimit="10" x1="15.233" y1="15.793" x2="13.923" y2="15.793"/>
	<line fill="none" stroke="#454546" stroke-width="0.15" stroke-miterlimit="10" x1="12.514" y1="15.793" x2="9.402" y2="15.793"/>
	<line fill="none" stroke="#454546" stroke-width="0.15" stroke-miterlimit="10" x1="21.687" y1="17.759" x2="21.687" y2="20.838"/>
	<line fill="none" stroke="#454546" stroke-width="0.15" stroke-miterlimit="10" x1="21.687" y1="22.247" x2="21.687" y2="23.557"/>
	<line fill="none" stroke="#454546" stroke-width="0.15" stroke-miterlimit="10" x1="21.687" y1="24.933" x2="21.687" y2="28.078"/>
	<line fill="none" stroke="#454546" stroke-width="0.15" stroke-miterlimit="10" x1="27.093" y1="33.879" x2="29.058" y2="33.551"/>
	<line fill="none" stroke="#454546" stroke-width="0.15" stroke-miterlimit="10" x1="29.058" y1="33.551" x2="27.093" y2="33.223"/>
	<line fill="none" stroke="#454546" stroke-width="0.15" stroke-miterlimit="10" x1="27.093" y1="33.223" x2="27.093" y2="33.879"/>
	<polyline fill-rule="evenodd" clip-rule="evenodd" fill="#454546" points="27.093,33.879 29.058,33.551 27.093,33.223 
		27.093,33.879 	"/>
	<line fill="none" stroke="#454546" stroke-width="0.15" stroke-miterlimit="10" x1="16.282" y1="33.879" x2="14.316" y2="33.551"/>
	<line fill="none" stroke="#454546" stroke-width="0.15" stroke-miterlimit="10" x1="14.316" y1="33.551" x2="16.282" y2="33.223"/>
	<line fill="none" stroke="#454546" stroke-width="0.15" stroke-miterlimit="10" x1="16.282" y1="33.223" x2="16.282" y2="33.879"/>
	<polyline fill-rule="evenodd" clip-rule="evenodd" fill="#454546" points="16.282,33.879 14.316,33.551 16.282,33.223 
		16.282,33.879 	"/>
	<line fill="none" stroke="#454546" stroke-width="0.15" stroke-miterlimit="10" x1="29.058" y1="13.795" x2="29.058" y2="35.795"/>
	<line fill="none" stroke="#454546" stroke-width="0.15" stroke-miterlimit="10" x1="14.316" y1="13.795" x2="14.316" y2="35.795"/>
	<g>
		<path fill="#454546" d="M18.494,34.534v-0.282h0.235v0.282H18.494z"/>
		<path fill="#454546" d="M19.77,33.277c0.097,0,0.185-0.006,0.264-0.018s0.147-0.034,0.204-0.067s0.101-0.078,0.133-0.134
			s0.048-0.127,0.048-0.215c0-0.07-0.013-0.131-0.039-0.181c-0.026-0.051-0.061-0.092-0.104-0.124s-0.095-0.056-0.154-0.07
			s-0.121-0.022-0.185-0.022c-0.073,0-0.139,0.012-0.198,0.035c-0.059,0.023-0.11,0.058-0.153,0.102
			c-0.043,0.043-0.076,0.095-0.1,0.153s-0.035,0.124-0.035,0.194h-0.206c0-0.103,0.018-0.195,0.053-0.277
			c0.036-0.082,0.091-0.159,0.166-0.229c0.071-0.064,0.15-0.105,0.239-0.123c0.089-0.019,0.181-0.027,0.275-0.027
			c0.09,0,0.174,0.011,0.252,0.033s0.146,0.057,0.204,0.103c0.058,0.046,0.104,0.104,0.138,0.175
			c0.034,0.07,0.051,0.153,0.051,0.247c0,0.118-0.026,0.22-0.079,0.305c-0.053,0.086-0.133,0.152-0.243,0.199
			c0.081,0.025,0.148,0.059,0.201,0.101c0.053,0.042,0.094,0.088,0.124,0.138c0.03,0.051,0.05,0.104,0.061,0.159
			s0.016,0.109,0.016,0.16c0,0.095-0.016,0.182-0.048,0.263c-0.032,0.082-0.08,0.153-0.142,0.216
			c-0.062,0.062-0.139,0.111-0.229,0.148c-0.091,0.038-0.195,0.058-0.31,0.06c-0.131,0-0.245-0.012-0.341-0.035
			s-0.177-0.062-0.241-0.117c-0.064-0.055-0.114-0.126-0.151-0.215s-0.061-0.199-0.074-0.332h0.206c0,0.173,0.052,0.305,0.156,0.393
			c0.104,0.089,0.239,0.134,0.407,0.134c0.081,0,0.157-0.015,0.228-0.042s0.131-0.065,0.182-0.112
			c0.05-0.047,0.089-0.102,0.116-0.164c0.026-0.062,0.039-0.126,0.037-0.192c-0.004-0.092-0.025-0.168-0.064-0.229
			c-0.039-0.062-0.091-0.109-0.156-0.145c-0.065-0.035-0.142-0.059-0.229-0.07s-0.181-0.015-0.28-0.009V33.277z"/>
		<path fill="#454546" d="M21.036,32.295h1.443v0.192c-0.163,0.184-0.301,0.372-0.415,0.565c-0.113,0.194-0.207,0.382-0.279,0.564
			c-0.073,0.184-0.127,0.354-0.163,0.512c-0.035,0.158-0.056,0.293-0.062,0.404h-0.225c0.011-0.162,0.043-0.335,0.098-0.518
			c0.055-0.184,0.123-0.364,0.204-0.544s0.173-0.354,0.276-0.521c0.103-0.168,0.209-0.317,0.318-0.45h-1.195V32.295z"/>
		<path fill="#454546" d="M24.037,32.828c-0.023-0.115-0.071-0.208-0.142-0.277s-0.167-0.104-0.289-0.104
			c-0.139,0-0.249,0.033-0.33,0.1c-0.08,0.066-0.142,0.15-0.185,0.252s-0.072,0.212-0.087,0.331
			c-0.015,0.12-0.027,0.233-0.035,0.341c0.032-0.043,0.066-0.086,0.101-0.129c0.036-0.043,0.076-0.08,0.121-0.113
			s0.098-0.061,0.158-0.08c0.06-0.021,0.131-0.031,0.215-0.031c0.229,0,0.407,0.065,0.532,0.194c0.125,0.13,0.188,0.308,0.188,0.534
			c0,0.229-0.063,0.408-0.19,0.539c-0.126,0.13-0.305,0.195-0.537,0.195c-0.113,0-0.218-0.019-0.315-0.056
			c-0.096-0.038-0.18-0.1-0.25-0.185c-0.071-0.086-0.126-0.197-0.167-0.336c-0.041-0.138-0.061-0.306-0.061-0.505
			c0-0.135,0.012-0.274,0.035-0.418c0.023-0.145,0.066-0.276,0.127-0.396s0.145-0.218,0.25-0.295
			c0.106-0.077,0.243-0.115,0.41-0.115c0.18,0,0.33,0.047,0.45,0.141c0.12,0.094,0.19,0.232,0.212,0.414H24.037z M23.558,33.29
			c-0.079,0-0.15,0.015-0.213,0.045c-0.063,0.029-0.117,0.07-0.161,0.121c-0.044,0.052-0.078,0.111-0.102,0.179
			c-0.023,0.067-0.035,0.14-0.035,0.216c0,0.064,0.009,0.129,0.027,0.194s0.048,0.125,0.09,0.178
			c0.042,0.054,0.095,0.098,0.159,0.132s0.144,0.052,0.238,0.052c0.096,0,0.177-0.017,0.243-0.05
			c0.065-0.033,0.118-0.077,0.159-0.132c0.041-0.055,0.07-0.115,0.088-0.183c0.019-0.067,0.027-0.136,0.027-0.204
			c0-0.175-0.042-0.311-0.127-0.405C23.867,33.336,23.736,33.29,23.558,33.29z"/>
	</g>
	<line fill="none" stroke="#454546" stroke-width="0.15" stroke-miterlimit="10" x1="29.058" y1="33.551" x2="24.898" y2="33.551"/>
	<line fill="none" stroke="#454546" stroke-width="0.15" stroke-miterlimit="10" x1="18.477" y1="33.551" x2="14.316" y2="33.551"/>
	<line fill="none" stroke="#454546" stroke-width="0.15" stroke-miterlimit="10" x1="29.025" y1="8.75" x2="27.682" y2="10.224"/>
	<line fill="none" stroke="#454546" stroke-width="0.15" stroke-miterlimit="10" x1="27.682" y1="10.224" x2="28.468" y2="8.422"/>
	<line fill="none" stroke="#454546" stroke-width="0.15" stroke-miterlimit="10" x1="28.468" y1="8.422" x2="29.025" y2="8.75"/>
	
		<polyline fill-rule="evenodd" clip-rule="evenodd" fill="none" stroke="#454546" stroke-width="0.15" stroke-miterlimit="10" points="
		29.025,8.75 27.682,10.224 28.468,8.422 29.025,8.75 	"/>
	<line fill="none" stroke="#454546" stroke-width="0.15" stroke-miterlimit="10" x1="30.631" y1="5.67" x2="35.631" y2="5.67"/>
	<g>
		<path fill="#454546" d="M36.744,5.604v1.049L36.525,6.65V4.344h0.906c0.255,0,0.45,0.047,0.585,0.143s0.203,0.25,0.203,0.463
			c0,0.146-0.03,0.261-0.088,0.347c-0.059,0.085-0.155,0.158-0.288,0.218c0.068,0.023,0.122,0.058,0.161,0.103
			s0.067,0.096,0.086,0.154c0.02,0.058,0.032,0.119,0.037,0.183s0.009,0.126,0.011,0.186c0.002,0.088,0.006,0.16,0.011,0.218
			c0.005,0.058,0.012,0.104,0.02,0.141c0.007,0.036,0.017,0.064,0.027,0.085c0.01,0.02,0.023,0.036,0.038,0.046V6.65l-0.241,0.003
			c-0.023-0.039-0.04-0.092-0.05-0.16c-0.01-0.069-0.017-0.14-0.022-0.215c-0.005-0.075-0.01-0.147-0.013-0.218
			c-0.003-0.071-0.009-0.128-0.018-0.173c-0.013-0.062-0.034-0.112-0.062-0.149c-0.029-0.038-0.064-0.066-0.104-0.085
			c-0.041-0.02-0.086-0.032-0.137-0.039s-0.102-0.01-0.156-0.01H36.744z M37.425,5.418c0.082,0,0.157-0.008,0.227-0.025
			s0.13-0.044,0.182-0.082c0.051-0.037,0.092-0.085,0.122-0.143C37.985,5.111,38,5.041,38,4.96c0-0.085-0.016-0.156-0.046-0.212
			c-0.031-0.056-0.073-0.099-0.125-0.131c-0.053-0.032-0.112-0.055-0.18-0.067c-0.067-0.013-0.137-0.019-0.21-0.019h-0.694v0.888
			H37.425z"/>
		<path fill="#454546" d="M39.632,6.653V6.371h0.234v0.282H39.632z"/>
		<path fill="#454546" d="M41.091,4.392c0.111,0,0.207,0.017,0.289,0.05c0.081,0.033,0.15,0.079,0.207,0.136
			s0.104,0.125,0.139,0.202s0.062,0.159,0.082,0.245c0.019,0.087,0.031,0.176,0.038,0.268s0.01,0.182,0.01,0.27
			c0,0.149-0.011,0.293-0.032,0.43s-0.061,0.258-0.117,0.362c-0.057,0.105-0.135,0.188-0.232,0.25
			c-0.1,0.062-0.227,0.093-0.383,0.093s-0.285-0.031-0.385-0.093c-0.1-0.062-0.178-0.146-0.234-0.251s-0.096-0.229-0.117-0.369
			c-0.021-0.14-0.031-0.288-0.031-0.444c0-0.144,0.009-0.283,0.028-0.42c0.019-0.137,0.056-0.259,0.11-0.367
			s0.133-0.195,0.233-0.261S40.928,4.392,41.091,4.392z M41.65,5.541c0-0.122-0.007-0.241-0.021-0.358
			c-0.015-0.116-0.042-0.221-0.082-0.312s-0.099-0.166-0.172-0.221s-0.171-0.083-0.291-0.083c-0.113,0-0.206,0.028-0.278,0.085
			c-0.071,0.057-0.127,0.132-0.168,0.226s-0.069,0.201-0.086,0.321c-0.016,0.12-0.023,0.242-0.023,0.366
			c0,0.146,0.009,0.277,0.027,0.396c0.018,0.119,0.049,0.22,0.092,0.303c0.043,0.083,0.1,0.148,0.172,0.194
			c0.071,0.046,0.162,0.069,0.271,0.069c0.122,0,0.22-0.03,0.294-0.09c0.073-0.06,0.13-0.137,0.169-0.231
			c0.038-0.094,0.064-0.2,0.076-0.317C41.644,5.769,41.65,5.654,41.65,5.541z"/>
		<path fill="#454546" d="M42.174,4.415h1.443v0.192c-0.163,0.184-0.302,0.373-0.415,0.566c-0.113,0.193-0.207,0.381-0.279,0.564
			c-0.073,0.183-0.127,0.353-0.162,0.511c-0.036,0.158-0.057,0.293-0.063,0.404h-0.225c0.011-0.163,0.044-0.335,0.099-0.518
			c0.054-0.183,0.122-0.364,0.203-0.543c0.082-0.18,0.174-0.354,0.276-0.521c0.104-0.167,0.209-0.318,0.318-0.45h-1.195V4.415z"/>
		<path fill="#454546" d="M44.308,5.438c-0.057-0.034-0.104-0.067-0.144-0.098c-0.04-0.031-0.072-0.064-0.098-0.101
			c-0.026-0.036-0.045-0.077-0.057-0.124c-0.012-0.046-0.018-0.103-0.018-0.171c0-0.077,0.018-0.149,0.052-0.218
			c0.034-0.068,0.08-0.127,0.138-0.178s0.126-0.089,0.204-0.117s0.162-0.041,0.252-0.039c0.086,0,0.17,0.011,0.253,0.032
			c0.082,0.021,0.155,0.055,0.22,0.1c0.064,0.044,0.116,0.102,0.154,0.171c0.039,0.069,0.058,0.152,0.058,0.249
			c0,0.118-0.023,0.218-0.072,0.301c-0.048,0.083-0.127,0.152-0.236,0.206c0.125,0.045,0.223,0.117,0.294,0.215
			c0.072,0.098,0.108,0.214,0.108,0.346c0,0.111-0.02,0.21-0.057,0.295s-0.091,0.157-0.16,0.215
			c-0.07,0.058-0.154,0.102-0.253,0.131s-0.208,0.045-0.327,0.045c-0.082,0-0.165-0.014-0.249-0.042
			c-0.085-0.028-0.161-0.07-0.229-0.125c-0.067-0.055-0.123-0.125-0.165-0.208c-0.043-0.083-0.064-0.181-0.064-0.292
			c0-0.135,0.033-0.255,0.101-0.361C44.082,5.564,44.179,5.487,44.308,5.438z M44.667,5.547c-0.079,0-0.152,0.01-0.219,0.029
			s-0.124,0.049-0.173,0.088c-0.05,0.04-0.088,0.09-0.116,0.15c-0.027,0.061-0.042,0.133-0.042,0.217c0,0.07,0.014,0.136,0.04,0.195
			c0.027,0.06,0.064,0.112,0.113,0.156c0.048,0.044,0.106,0.079,0.177,0.104c0.069,0.026,0.146,0.039,0.232,0.039
			c0.075,0,0.145-0.012,0.209-0.037c0.064-0.025,0.12-0.06,0.169-0.104c0.048-0.045,0.086-0.098,0.112-0.16s0.04-0.13,0.04-0.206
			c0-0.079-0.014-0.148-0.042-0.207c-0.027-0.059-0.066-0.108-0.115-0.147c-0.05-0.04-0.107-0.069-0.174-0.088
			S44.743,5.547,44.667,5.547z M44.658,4.565c-0.064,0-0.124,0.008-0.18,0.025c-0.056,0.018-0.104,0.043-0.146,0.077
			s-0.074,0.077-0.098,0.128s-0.035,0.11-0.035,0.176c0,0.071,0.013,0.131,0.04,0.181c0.026,0.05,0.062,0.091,0.107,0.124
			S44.443,5.333,44.5,5.35s0.118,0.024,0.18,0.024c0.062,0,0.12-0.008,0.174-0.024s0.1-0.042,0.138-0.079
			c0.039-0.036,0.069-0.083,0.092-0.138c0.022-0.056,0.034-0.124,0.034-0.206c0-0.115-0.038-0.205-0.112-0.268
			C44.93,4.597,44.814,4.565,44.658,4.565z"/>
	</g>
	<line fill="none" stroke="#454546" stroke-width="0.15" stroke-miterlimit="10" x1="27.682" y1="10.224" x2="30.631" y2="5.67"/>
	<line fill="none" stroke="#454546" stroke-width="0.15" stroke-miterlimit="10" x1="3.193" y1="21.854" x2="3.521" y2="23.82"/>
	<line fill="none" stroke="#454546" stroke-width="0.15" stroke-miterlimit="10" x1="3.521" y1="23.82" x2="3.848" y2="21.854"/>
	<line fill="none" stroke="#454546" stroke-width="0.15" stroke-miterlimit="10" x1="3.848" y1="21.854" x2="3.193" y2="21.854"/>
	<polyline fill-rule="evenodd" clip-rule="evenodd" fill="#454546" points="3.193,21.854 3.521,23.82 3.848,21.854 3.193,21.854 	
		"/>
	<line fill="none" stroke="#454546" stroke-width="0.15" stroke-miterlimit="10" x1="3.193" y1="11.698" x2="3.521" y2="9.733"/>
	<line fill="none" stroke="#454546" stroke-width="0.15" stroke-miterlimit="10" x1="3.521" y1="9.733" x2="3.848" y2="11.698"/>
	<line fill="none" stroke="#454546" stroke-width="0.15" stroke-miterlimit="10" x1="3.848" y1="11.698" x2="3.193" y2="11.698"/>
	<polyline fill-rule="evenodd" clip-rule="evenodd" fill="#454546" points="3.193,11.698 3.521,9.733 3.848,11.698 3.193,11.698 	
		"/>
	<line fill="none" stroke="#454546" stroke-width="0.15" stroke-miterlimit="10" x1="20.704" y1="23.82" x2="1.704" y2="23.82"/>
	<line fill="none" stroke="#454546" stroke-width="0.15" stroke-miterlimit="10" x1="16.38" y1="9.733" x2="1.38" y2="9.733"/>
	<g>
		<path fill="#454546" d="M0.328,17.759v-0.282h0.235v0.282H0.328z"/>
		<path fill="#454546" d="M1.603,16.502c0.097,0,0.185-0.006,0.264-0.018s0.147-0.034,0.204-0.067s0.101-0.078,0.133-0.133
			c0.032-0.055,0.048-0.127,0.048-0.215c0-0.07-0.013-0.131-0.039-0.181c-0.026-0.05-0.061-0.091-0.104-0.124
			c-0.044-0.032-0.095-0.055-0.154-0.07s-0.121-0.022-0.185-0.022c-0.073,0-0.139,0.012-0.198,0.035
			c-0.059,0.023-0.11,0.057-0.153,0.101s-0.076,0.095-0.1,0.154c-0.023,0.059-0.035,0.124-0.035,0.194H1.08
			c0-0.103,0.018-0.195,0.053-0.277c0.036-0.083,0.091-0.159,0.166-0.229c0.071-0.064,0.15-0.105,0.239-0.124
			s0.181-0.027,0.275-0.027c0.09,0,0.174,0.011,0.252,0.034s0.146,0.057,0.204,0.103c0.058,0.046,0.104,0.104,0.138,0.175
			c0.034,0.071,0.051,0.153,0.051,0.247c0,0.118-0.026,0.219-0.079,0.305c-0.053,0.085-0.133,0.152-0.243,0.199
			c0.081,0.026,0.148,0.06,0.201,0.101c0.053,0.042,0.094,0.088,0.124,0.138c0.03,0.05,0.05,0.103,0.061,0.159
			s0.016,0.108,0.016,0.16c0,0.095-0.016,0.183-0.048,0.263c-0.032,0.082-0.08,0.153-0.142,0.215
			c-0.062,0.062-0.139,0.112-0.229,0.149c-0.091,0.038-0.195,0.058-0.31,0.06c-0.131,0-0.245-0.012-0.341-0.035
			s-0.177-0.062-0.241-0.117c-0.064-0.055-0.114-0.126-0.151-0.215s-0.061-0.199-0.074-0.332h0.206c0,0.174,0.052,0.305,0.156,0.393
			c0.104,0.089,0.239,0.133,0.407,0.133c0.081,0,0.157-0.014,0.228-0.041s0.131-0.065,0.182-0.112
			c0.05-0.047,0.089-0.102,0.116-0.163c0.026-0.062,0.039-0.127,0.037-0.193c-0.004-0.092-0.025-0.168-0.064-0.229
			s-0.091-0.109-0.156-0.144c-0.065-0.036-0.142-0.059-0.229-0.071s-0.181-0.014-0.28-0.008V16.502z"/>
		<path fill="#454546" d="M2.998,17.172c0.021,0.153,0.083,0.269,0.185,0.345c0.102,0.076,0.227,0.113,0.375,0.113
			c0.083,0,0.159-0.014,0.227-0.045c0.067-0.029,0.125-0.07,0.172-0.123c0.047-0.053,0.083-0.113,0.107-0.183S4.1,17.134,4.1,17.054
			c0-0.084-0.014-0.161-0.041-0.231c-0.026-0.071-0.064-0.131-0.112-0.183c-0.048-0.052-0.107-0.091-0.177-0.119
			c-0.069-0.028-0.147-0.042-0.233-0.042c-0.103,0-0.195,0.019-0.276,0.056c-0.082,0.038-0.153,0.097-0.215,0.178l-0.17-0.022
			l0.184-1.171h1.125v0.173H3.232l-0.142,0.76c0.045-0.028,0.086-0.051,0.124-0.071c0.037-0.019,0.075-0.035,0.114-0.046
			s0.079-0.02,0.121-0.024c0.042-0.004,0.088-0.007,0.14-0.007c0.103,0,0.198,0.018,0.286,0.052s0.164,0.083,0.228,0.147
			c0.064,0.064,0.114,0.143,0.149,0.235c0.036,0.093,0.053,0.197,0.053,0.313c0,0.119-0.02,0.226-0.06,0.318
			c-0.04,0.094-0.093,0.172-0.159,0.236s-0.143,0.112-0.229,0.146s-0.176,0.05-0.269,0.05c-0.107,0-0.207-0.011-0.3-0.032
			c-0.093-0.021-0.175-0.058-0.246-0.107c-0.071-0.05-0.128-0.115-0.172-0.195c-0.044-0.081-0.07-0.179-0.079-0.297H2.998z"/>
		<path fill="#454546" d="M5.003,16.544c-0.056-0.034-0.104-0.067-0.143-0.098c-0.04-0.031-0.072-0.064-0.098-0.101
			c-0.025-0.036-0.044-0.077-0.056-0.124c-0.012-0.046-0.018-0.103-0.018-0.171c0-0.077,0.017-0.149,0.051-0.218
			c0.034-0.068,0.081-0.127,0.138-0.178c0.058-0.05,0.126-0.089,0.204-0.117s0.163-0.041,0.252-0.039
			c0.085,0,0.169,0.011,0.252,0.032s0.156,0.055,0.22,0.1c0.064,0.044,0.116,0.102,0.154,0.171s0.058,0.152,0.058,0.249
			c0,0.118-0.024,0.218-0.073,0.301c-0.048,0.083-0.126,0.152-0.236,0.206c0.124,0.045,0.222,0.117,0.294,0.215
			s0.107,0.214,0.107,0.346c0,0.111-0.019,0.21-0.056,0.296c-0.038,0.085-0.091,0.156-0.161,0.215
			c-0.069,0.057-0.154,0.102-0.252,0.131c-0.099,0.03-0.208,0.045-0.328,0.045c-0.081,0-0.164-0.014-0.249-0.042
			c-0.084-0.027-0.161-0.069-0.228-0.125s-0.123-0.125-0.166-0.208c-0.043-0.084-0.064-0.182-0.064-0.292
			c0-0.135,0.034-0.255,0.101-0.361S4.875,16.593,5.003,16.544z M5.363,16.653c-0.079,0-0.152,0.01-0.218,0.029
			C5.078,16.701,5.02,16.73,4.971,16.77s-0.088,0.09-0.116,0.15c-0.028,0.062-0.042,0.134-0.042,0.217
			c0,0.07,0.013,0.136,0.04,0.195s0.064,0.112,0.112,0.155c0.048,0.045,0.107,0.079,0.177,0.104c0.07,0.026,0.147,0.038,0.233,0.038
			c0.075,0,0.145-0.012,0.209-0.036c0.064-0.024,0.121-0.06,0.169-0.104c0.048-0.045,0.085-0.098,0.112-0.16s0.04-0.131,0.04-0.205
			c0-0.08-0.014-0.148-0.042-0.207c-0.028-0.059-0.066-0.108-0.116-0.147s-0.107-0.069-0.174-0.088S5.438,16.653,5.363,16.653z
			 M5.353,15.671c-0.064,0-0.124,0.008-0.18,0.025c-0.056,0.018-0.104,0.043-0.146,0.077c-0.042,0.034-0.074,0.077-0.098,0.128
			c-0.024,0.051-0.036,0.11-0.036,0.176c0,0.071,0.014,0.131,0.041,0.181c0.026,0.05,0.062,0.091,0.107,0.124
			s0.096,0.056,0.154,0.072c0.058,0.016,0.118,0.024,0.18,0.024c0.062,0,0.12-0.008,0.174-0.024c0.053-0.016,0.1-0.042,0.138-0.079
			s0.069-0.083,0.091-0.138c0.022-0.056,0.034-0.124,0.034-0.206c0-0.115-0.037-0.205-0.112-0.268S5.51,15.671,5.353,15.671z"/>
	</g>
	<line fill="none" stroke="#454546" stroke-width="0.15" stroke-miterlimit="10" x1="3.521" y1="23.82" x2="3.521" y2="18.447"/>
	<line fill="none" stroke="#454546" stroke-width="0.15" stroke-miterlimit="10" x1="3.521" y1="15.105" x2="3.521" y2="9.733"/>
	<line fill="none" stroke="#454546" stroke-width="0.15" stroke-miterlimit="10" x1="21.196" y1="9.667" x2="20.901" y2="11.633"/>
	<line fill="none" stroke="#454546" stroke-width="0.15" stroke-miterlimit="10" x1="20.901" y1="11.633" x2="21.818" y2="9.864"/>
	<line fill="none" stroke="#454546" stroke-width="0.15" stroke-miterlimit="10" x1="21.818" y1="9.864" x2="21.196" y2="9.667"/>
	
		<polyline fill-rule="evenodd" clip-rule="evenodd" fill="none" stroke="#454546" stroke-width="0.15" stroke-miterlimit="10" points="
		21.196,9.667 20.901,11.633 21.818,9.864 21.196,9.667 	"/>
	<line fill="none" stroke="#454546" stroke-width="0.15" stroke-miterlimit="10" x1="24.046" y1="1.772" x2="24.046" y2="1.772"/>
	<g>
		<path fill="#454545" d="M30.16,1.706v1.049l-0.219-0.003V0.446h0.906c0.255,0,0.45,0.047,0.585,0.143s0.203,0.25,0.203,0.463
			c0,0.146-0.03,0.261-0.088,0.347c-0.059,0.085-0.155,0.158-0.288,0.218c0.068,0.023,0.122,0.058,0.161,0.103
			s0.067,0.096,0.086,0.154c0.02,0.058,0.032,0.119,0.037,0.183s0.009,0.126,0.011,0.186c0.002,0.088,0.006,0.16,0.011,0.218
			c0.005,0.058,0.012,0.104,0.02,0.141c0.007,0.036,0.017,0.064,0.027,0.085c0.01,0.02,0.023,0.036,0.038,0.046v0.019L31.41,2.755
			c-0.023-0.039-0.04-0.092-0.05-0.16c-0.01-0.069-0.017-0.14-0.022-0.215c-0.005-0.075-0.01-0.147-0.013-0.218
			c-0.003-0.071-0.009-0.128-0.018-0.173c-0.013-0.062-0.034-0.112-0.062-0.149c-0.029-0.038-0.064-0.066-0.104-0.085
			c-0.041-0.02-0.086-0.032-0.137-0.039s-0.102-0.01-0.156-0.01H30.16z M30.841,1.52c0.082,0,0.157-0.008,0.227-0.025
			s0.13-0.044,0.182-0.082c0.051-0.037,0.092-0.085,0.122-0.143c0.03-0.058,0.045-0.127,0.045-0.208
			c0-0.085-0.016-0.156-0.046-0.212c-0.031-0.056-0.073-0.099-0.125-0.131c-0.053-0.032-0.112-0.055-0.18-0.067
			c-0.067-0.013-0.137-0.019-0.21-0.019H30.16V1.52H30.841z"/>
		<path fill="#454545" d="M33.048,2.755V2.473h0.235v0.282H33.048z"/>
		<path fill="#454545" d="M34.507,0.494c0.112,0,0.208,0.017,0.29,0.05c0.081,0.033,0.15,0.079,0.207,0.136s0.103,0.125,0.138,0.202
			c0.036,0.077,0.063,0.159,0.082,0.245c0.019,0.087,0.032,0.176,0.039,0.268s0.01,0.182,0.01,0.27c0,0.149-0.011,0.293-0.032,0.43
			s-0.061,0.258-0.117,0.362c-0.057,0.105-0.135,0.188-0.233,0.25C34.791,2.769,34.664,2.8,34.507,2.8
			c-0.156,0-0.284-0.031-0.384-0.093c-0.1-0.062-0.178-0.146-0.234-0.251c-0.057-0.106-0.096-0.229-0.118-0.369
			c-0.021-0.14-0.032-0.288-0.032-0.444c0-0.144,0.009-0.283,0.029-0.42c0.019-0.137,0.056-0.259,0.111-0.367
			s0.132-0.195,0.233-0.261S34.344,0.494,34.507,0.494z M35.066,1.642c0-0.122-0.007-0.241-0.021-0.358
			c-0.014-0.116-0.042-0.221-0.082-0.312s-0.098-0.166-0.172-0.221S34.621,0.667,34.5,0.667c-0.113,0-0.206,0.028-0.278,0.085
			s-0.128,0.132-0.168,0.226c-0.041,0.094-0.069,0.201-0.085,0.321s-0.024,0.242-0.024,0.366c0,0.146,0.009,0.277,0.027,0.396
			c0.018,0.119,0.049,0.22,0.091,0.303c0.043,0.083,0.1,0.148,0.172,0.194s0.163,0.069,0.271,0.069c0.123,0,0.22-0.03,0.294-0.09
			c0.074-0.06,0.13-0.137,0.168-0.231c0.039-0.094,0.064-0.2,0.077-0.317S35.066,1.755,35.066,1.642z"/>
		<path fill="#454545" d="M36.805,1.049c-0.023-0.116-0.071-0.208-0.142-0.278c-0.071-0.069-0.167-0.104-0.289-0.104
			c-0.139,0-0.249,0.033-0.33,0.1c-0.08,0.066-0.142,0.15-0.185,0.251S35.788,1.23,35.773,1.35c-0.015,0.12-0.027,0.233-0.035,0.34
			c0.032-0.042,0.066-0.085,0.101-0.128c0.036-0.043,0.076-0.081,0.121-0.114s0.098-0.06,0.158-0.08
			c0.06-0.02,0.131-0.03,0.215-0.03c0.229,0,0.407,0.064,0.532,0.194c0.125,0.129,0.188,0.308,0.188,0.534
			c0,0.229-0.063,0.408-0.19,0.539S36.557,2.8,36.326,2.8c-0.113,0-0.218-0.019-0.315-0.056c-0.096-0.038-0.18-0.099-0.25-0.185
			c-0.071-0.085-0.126-0.197-0.167-0.335c-0.041-0.138-0.061-0.306-0.061-0.505c0-0.135,0.012-0.274,0.035-0.418
			c0.023-0.144,0.066-0.276,0.127-0.396s0.145-0.218,0.25-0.295c0.106-0.077,0.243-0.116,0.41-0.116c0.18,0,0.33,0.047,0.45,0.141
			c0.12,0.094,0.19,0.232,0.212,0.414H36.805z M36.326,1.51c-0.079,0-0.15,0.015-0.213,0.045c-0.063,0.03-0.117,0.071-0.161,0.122
			c-0.044,0.051-0.078,0.111-0.102,0.178c-0.023,0.067-0.035,0.139-0.035,0.216c0,0.064,0.009,0.129,0.027,0.194
			c0.018,0.065,0.048,0.125,0.09,0.178c0.042,0.053,0.095,0.097,0.159,0.131s0.144,0.051,0.238,0.051
			c0.096,0,0.177-0.017,0.243-0.05C36.637,2.544,36.69,2.5,36.73,2.445c0.041-0.055,0.07-0.115,0.088-0.183
			c0.019-0.067,0.027-0.135,0.027-0.204c0-0.175-0.042-0.311-0.127-0.406C36.635,1.558,36.503,1.51,36.326,1.51z"/>
		<path fill="#454545" d="M37.505,2.168c0.021,0.154,0.083,0.269,0.185,0.345c0.102,0.076,0.227,0.114,0.375,0.114
			c0.083,0,0.159-0.015,0.227-0.045c0.067-0.03,0.125-0.071,0.172-0.124c0.047-0.052,0.083-0.113,0.107-0.183
			s0.037-0.145,0.037-0.226c0-0.083-0.014-0.16-0.041-0.231c-0.026-0.071-0.064-0.131-0.112-0.183
			c-0.048-0.052-0.107-0.091-0.177-0.119c-0.069-0.028-0.147-0.042-0.233-0.042c-0.103,0-0.195,0.019-0.276,0.056
			c-0.082,0.038-0.153,0.097-0.215,0.178l-0.17-0.022l0.184-1.171h1.125v0.173H37.74l-0.142,0.76
			c0.045-0.028,0.086-0.051,0.124-0.071c0.037-0.019,0.075-0.035,0.114-0.046s0.079-0.02,0.121-0.024
			c0.042-0.004,0.088-0.007,0.14-0.007c0.103,0,0.198,0.018,0.286,0.052s0.164,0.083,0.228,0.147
			c0.064,0.064,0.114,0.143,0.149,0.235c0.036,0.093,0.053,0.197,0.053,0.313c0,0.12-0.02,0.226-0.06,0.319
			c-0.04,0.093-0.093,0.172-0.159,0.236c-0.066,0.064-0.143,0.113-0.229,0.146S38.188,2.8,38.096,2.8
			c-0.107,0-0.207-0.011-0.3-0.032C37.703,2.747,37.621,2.71,37.55,2.66c-0.071-0.05-0.128-0.115-0.172-0.195
			c-0.044-0.081-0.07-0.179-0.079-0.297H37.505z"/>
	</g>
	<line fill="none" stroke="#454546" stroke-width="0.15" stroke-miterlimit="10" x1="24.046" y1="1.772" x2="20.901" y2="11.633"/>
	
		<line fill="none" stroke="#000000" stroke-width="0.12" stroke-linecap="round" stroke-linejoin="round" stroke-miterlimit="10" x1="19.046" y1="15.772" x2="24.046" y2="15.772"/>
	
		<line fill="none" stroke="#454545" stroke-width="0.12" stroke-linecap="round" stroke-linejoin="round" stroke-miterlimit="10" x1="24.046" y1="1.772" x2="29.046" y2="1.772"/>
</g>
<g>
</g>
<g>
</g>
<g>
</g>
<g>
</g>
<g>
</g>
<g>
</g>
<g>
</g>
<g>
</g>
<g>
</g>
<g>
</g>
<g>
</g>
<g>
</g>
<g>
</g>
<g>
</g>
<g>
</g>
</svg>
